<?xml version="1.0" encoding="UTF-8" standalone="no"?>
<!-- Created with Inkscape (http://www.inkscape.org/) -->

<svg
   version="1.1"
   id="svg2"
   width="4266.6665"
   height="2666.6667"
   viewBox="0 0 4266.6665 2666.6667"
   sodipodi:docname="6308.eps"
   xmlns:inkscape="http://www.inkscape.org/namespaces/inkscape"
   xmlns:sodipodi="http://sodipodi.sourceforge.net/DTD/sodipodi-0.dtd"
   xmlns="http://www.w3.org/2000/svg"
   xmlns:svg="http://www.w3.org/2000/svg">
  <defs
     id="defs6" />
  <sodipodi:namedview
     id="namedview4"
     pagecolor="#ffffff"
     bordercolor="#000000"
     borderopacity="0.25"
     inkscape:showpageshadow="2"
     inkscape:pageopacity="0.0"
     inkscape:pagecheckerboard="0"
     inkscape:deskcolor="#d1d1d1" />
  <g
     id="g8"
     inkscape:groupmode="layer"
     inkscape:label="ink_ext_XXXXXX"
     transform="matrix(1.3333333,0,0,-1.3333333,0,2666.6667)">
    <g
       id="g10"
       transform="scale(0.1)">
      <path
         d="M 32000,0 H 0 V 20000 H 32000 V 0"
         style="fill:#ffffff;fill-opacity:1;fill-rule:nonzero;stroke:none"
         id="path12" />
      <path
         d="m 3452.86,2926.5 c 1.29,-1 25215.04,3.1 25215.04,3.1 830.1,1770.6 828.7,2635.7 923.2,3650.6 521.5,5609.5 -3703.5,6471.9 -4941.2,6705.8 -3789.9,716.2 -2065,4259.9 -11940.8,3595 -905.2,-60.9 -3039.33,-552.9 -3774.84,-871.6 C 8418.39,15786 6474.81,14786.5 5904.56,13095.8 5724.45,12562.2 5681.24,11959.7 5862.83,11291.1 6505.55,8924.9 4829.93,9060.9 3605.51,7933.3 1971.29,6428.5 2142.12,3967.4 3452.86,2926.5"
         style="fill:#ebf3fa;fill-opacity:1;fill-rule:nonzero;stroke:none"
         id="path14" />
      <path
         d="m 18472.1,2928 h 3.4 c 20.4,0 36.8,16.8 36.3,37.2 l -55,2384 -162,18.9 L 18433,2965 c 1.2,-20.8 18.3,-37 39.1,-37"
         style="fill:#b0d4ff;fill-opacity:1;fill-rule:nonzero;stroke:none"
         id="path16" />
      <path
         d="m 19416.3,2928 h 3.4 c 20.4,0 36.8,16.8 36.3,37.2 l -55,2384 -162,18.9 138.1,-2403.1 c 1.2,-20.8 18.4,-37 39.2,-37"
         style="fill:#95c0f4;fill-opacity:1;fill-rule:nonzero;stroke:none"
         id="path18" />
      <path
         d="m 16810.8,2928 h -3.4 c -20.4,0 -36.7,16.8 -36.3,37.2 l 55,2384 162.1,18.9 L 16850,2965 c -1.2,-20.8 -18.4,-37 -39.2,-37"
         style="fill:#b0d4ff;fill-opacity:1;fill-rule:nonzero;stroke:none"
         id="path20" />
      <path
         d="m 19523.6,5497.1 v 1633.6 c 0,287.5 -233,520.5 -520.4,520.5 h -1177.1 c -287.4,0 -520.5,-233 -520.5,-520.5 V 5434.6 l 2218,62.5"
         style="fill:#b0d4ff;fill-opacity:1;fill-rule:nonzero;stroke:none"
         id="path22" />
      <path
         d="m 17094.8,5239.2 h 2272.6 c 86.3,0 156.2,69.9 156.2,156.2 v 101.7 h -2428.8 v -257.9"
         style="fill:#95c0f4;fill-opacity:1;fill-rule:nonzero;stroke:none"
         id="path24" />
      <path
         d="m 16822.4,5239.2 h 1719.3 c 63.9,0 115.6,51.7 115.6,115.5 v 26.8 c 0,63.8 -51.7,115.6 -115.6,115.6 h -1719.3 c -63.8,0 -115.5,-51.8 -115.5,-115.6 v -26.8 c 0,-63.8 51.7,-115.5 115.5,-115.5"
         style="fill:#cae5ff;fill-opacity:1;fill-rule:nonzero;stroke:none"
         id="path26" />
      <path
         d="m 20784.2,8238 h -6785.3 v 5857.4 h 6785.3 V 8238"
         style="fill:#95c0f4;fill-opacity:1;fill-rule:nonzero;stroke:none"
         id="path28" />
      <path
         d="M 20652.2,8354.8 H 14128 v 5643 h 6524.2 v -5643"
         style="fill:#dfedfb;fill-opacity:1;fill-rule:nonzero;stroke:none"
         id="path30" />
      <path
         d="m 16408.3,11542.6 h -1429.6 v 1785.2 l 242.4,218.5 h 1187.2 v -2003.7"
         style="fill:#ffffff;fill-opacity:1;fill-rule:nonzero;stroke:none"
         id="path32" />
      <path
         d="m 14978.7,13327.8 h 234.6 l 7.8,218.5 z"
         style="fill:#b0d4ff;fill-opacity:1;fill-rule:nonzero;stroke:none"
         id="path34" />
      <path
         d="m 15922.4,13350.8 h -457.8 v 21.8 h 457.8 v -21.8"
         style="fill:#b0d4ff;fill-opacity:1;fill-rule:nonzero;stroke:none"
         id="path36" />
      <path
         d="m 16030.1,13285.4 h -673.2 v 21.8 h 673.2 v -21.8"
         style="fill:#b0d4ff;fill-opacity:1;fill-rule:nonzero;stroke:none"
         id="path38" />
      <path
         d="m 16265.8,12859.2 h -1117.9 v 28 h 1117.9 v -28"
         style="fill:#b0d4ff;fill-opacity:1;fill-rule:nonzero;stroke:none"
         id="path40" />
      <path
         d="m 16265.8,12774 h -1117.9 v 28.1 h 1117.9 v -28.1"
         style="fill:#b0d4ff;fill-opacity:1;fill-rule:nonzero;stroke:none"
         id="path42" />
      <path
         d="m 16265.8,12688.9 h -1117.9 v 28 h 1117.9 v -28"
         style="fill:#b0d4ff;fill-opacity:1;fill-rule:nonzero;stroke:none"
         id="path44" />
      <path
         d="m 16265.8,12603.8 h -1117.9 v 28 h 1117.9 v -28"
         style="fill:#b0d4ff;fill-opacity:1;fill-rule:nonzero;stroke:none"
         id="path46" />
      <path
         d="m 16265.8,11693 h -1117.9 v 28 h 1117.9 v -28"
         style="fill:#b0d4ff;fill-opacity:1;fill-rule:nonzero;stroke:none"
         id="path48" />
      <path
         d="M 18059.1,9065.8 H 16629.4 V 10851 l 242.5,218.5 h 1187.2 V 9065.8"
         style="fill:#ffffff;fill-opacity:1;fill-rule:nonzero;stroke:none"
         id="path50" />
      <path
         d="m 16629.4,10851 h 234.7 l 7.8,218.5 z"
         style="fill:#b0d4ff;fill-opacity:1;fill-rule:nonzero;stroke:none"
         id="path52" />
      <path
         d="m 17573.1,10874 h -457.7 v 21.8 h 457.7 v -21.8"
         style="fill:#b0d4ff;fill-opacity:1;fill-rule:nonzero;stroke:none"
         id="path54" />
      <path
         d="m 17680.9,10808.6 h -673.3 v 21.8 h 673.3 v -21.8"
         style="fill:#b0d4ff;fill-opacity:1;fill-rule:nonzero;stroke:none"
         id="path56" />
      <path
         d="m 17916.6,10382.4 h -1117.9 v 28 h 1117.9 v -28"
         style="fill:#b0d4ff;fill-opacity:1;fill-rule:nonzero;stroke:none"
         id="path58" />
      <path
         d="m 17916.6,10297.2 h -1117.9 v 28.1 h 1117.9 v -28.1"
         style="fill:#b0d4ff;fill-opacity:1;fill-rule:nonzero;stroke:none"
         id="path60" />
      <path
         d="m 17916.6,10212.1 h -1117.9 v 28.1 h 1117.9 v -28.1"
         style="fill:#b0d4ff;fill-opacity:1;fill-rule:nonzero;stroke:none"
         id="path62" />
      <path
         d="m 17916.6,10127 h -1117.9 v 28 h 1117.9 v -28"
         style="fill:#b0d4ff;fill-opacity:1;fill-rule:nonzero;stroke:none"
         id="path64" />
      <path
         d="m 17916.6,9865.1 h -1117.9 v 28 h 1117.9 v -28"
         style="fill:#b0d4ff;fill-opacity:1;fill-rule:nonzero;stroke:none"
         id="path66" />
      <path
         d="m 17916.6,9780 h -1117.9 v 28 h 1117.9 v -28"
         style="fill:#b0d4ff;fill-opacity:1;fill-rule:nonzero;stroke:none"
         id="path68" />
      <path
         d="m 17916.6,9681.3 h -1117.9 v 28 h 1117.9 v -28"
         style="fill:#b0d4ff;fill-opacity:1;fill-rule:nonzero;stroke:none"
         id="path70" />
      <path
         d="m 18076.4,13546.3 h 789.4 v -695.9 h -789.4 v 695.9"
         style="fill:#b0d4ff;fill-opacity:1;fill-rule:nonzero;stroke:none"
         id="path72" />
      <path
         d="m 18436.6,13463.5 c 0,19.1 15.4,34.5 34.5,34.5 19.1,0 34.6,-15.4 34.6,-34.5 0,-19.1 -15.5,-34.6 -34.6,-34.6 -19.1,0 -34.5,15.5 -34.5,34.6"
         style="fill:#ffa412;fill-opacity:1;fill-rule:nonzero;stroke:none"
         id="path74" />
      <path
         d="m 18053.1,12576.7 787.5,55 48.5,-694.3 -787.5,-55 -48.5,694.3"
         style="fill:#ffffff;fill-opacity:1;fill-rule:nonzero;stroke:none"
         id="path76" />
      <path
         d="m 18421.2,12476.1 c -1.3,19 13,35.5 32.1,36.8 19,1.4 35.5,-13 36.8,-32 1.4,-19.1 -13,-35.6 -32,-36.9 -19.1,-1.3 -35.6,13 -36.9,32.1"
         style="fill:#b0d4ff;fill-opacity:1;fill-rule:nonzero;stroke:none"
         id="path78" />
      <path
         d="m 15429.8,10012.7 787.6,55 48.4,-694.3 -787.5,-55 -48.5,694.3"
         style="fill:#ffffff;fill-opacity:1;fill-rule:nonzero;stroke:none"
         id="path80" />
      <path
         d="m 15797.9,9912.1 c -1.3,19 13,35.5 32.1,36.9 19,1.3 35.5,-13.1 36.9,-32.1 1.3,-19.1 -13.1,-35.6 -32.1,-36.9 -19.1,-1.3 -35.6,13 -36.9,32.1"
         style="fill:#b0d4ff;fill-opacity:1;fill-rule:nonzero;stroke:none"
         id="path82" />
      <path
         d="m 14437.1,9560.1 789.4,8.1 7.1,-695.9 -789.3,-8.1 -7.2,695.9"
         style="fill:#ffffff;fill-opacity:1;fill-rule:nonzero;stroke:none"
         id="path84" />
      <path
         d="m 14798.5,9437.8 c -0.1,19.1 15.2,34.7 34.3,34.9 19,0.2 34.7,-15.1 34.9,-34.2 0.2,-19.1 -15.1,-34.7 -34.2,-34.9 -19.1,-0.2 -34.8,15.1 -35,34.2"
         style="fill:#b0d4ff;fill-opacity:1;fill-rule:nonzero;stroke:none"
         id="path86" />
      <path
         d="m 19258.7,12211.3 777.1,-138.9 -122.4,-685.1 -777.1,138.9 122.4,685.1"
         style="fill:#eef6ff;fill-opacity:1;fill-rule:nonzero;stroke:none"
         id="path88" />
      <path
         d="m 19601.1,12054.3 c 2.9,16.4 18.5,27.2 34.9,24.3 16.3,-2.9 27.2,-18.5 24.3,-34.8 -2.9,-16.4 -18.6,-27.3 -34.9,-24.4 -16.3,3 -27.2,18.6 -24.3,34.9"
         style="fill:#78acea;fill-opacity:1;fill-rule:nonzero;stroke:none"
         id="path90" />
      <path
         d="m 16826,12560.5 784.8,85 74.9,-691.9 -784.8,-85 -74.9,691.9"
         style="fill:#eef6ff;fill-opacity:1;fill-rule:nonzero;stroke:none"
         id="path92" />
      <path
         d="m 17198.7,12506 c -1.8,16.5 10.1,31.4 26.6,33.2 16.5,1.7 31.3,-10.2 33.1,-26.7 1.8,-16.5 -10.1,-31.3 -26.6,-33.1 -16.5,-1.8 -31.4,10.1 -33.1,26.6"
         style="fill:#78acea;fill-opacity:1;fill-rule:nonzero;stroke:none"
         id="path94" />
      <path
         d="m 14789.7,10835.7 772,164.6 145.2,-680.6 -772.1,-164.7 -145.1,680.7"
         style="fill:#bae8e3;fill-opacity:1;fill-rule:nonzero;stroke:none"
         id="path96" />
      <path
         d="m 15178.9,10800.8 c -13.9,9.1 -17.9,27.7 -8.8,41.6 9,13.9 27.6,17.9 41.6,8.9 13.9,-9 17.8,-27.7 8.8,-41.6 -9,-13.9 -27.6,-17.9 -41.6,-8.9"
         style="fill:#ffa412;fill-opacity:1;fill-rule:nonzero;stroke:none"
         id="path98" />
      <path
         d="m 17631.5,12850.4 h -751.3 v 504.8 l 208,191.1 h 543.3 v -695.9"
         style="fill:#ffffff;fill-opacity:1;fill-rule:nonzero;stroke:none"
         id="path100" />
      <path
         d="m 16876.2,13355.2 h 205.2 l 6.8,191.1 z"
         style="fill:#b0d4ff;fill-opacity:1;fill-rule:nonzero;stroke:none"
         id="path102" />
      <path
         d="m 17258.6,13481.9 c 0,13.7 11.1,24.7 24.7,24.7 13.7,0 24.7,-11 24.7,-24.7 0,-13.6 -11,-24.7 -24.7,-24.7 -13.6,0 -24.7,11.1 -24.7,24.7"
         style="fill:#b0d4ff;fill-opacity:1;fill-rule:nonzero;stroke:none"
         id="path104" />
      <path
         d="m 19826.9,8717.8 h -751.4 v 504.9 l 208,191.1 h 543.4 v -696"
         style="fill:#ffffff;fill-opacity:1;fill-rule:nonzero;stroke:none"
         id="path106" />
      <path
         d="m 19071.5,9222.7 h 205.2 l 6.8,191.1 z"
         style="fill:#b0d4ff;fill-opacity:1;fill-rule:nonzero;stroke:none"
         id="path108" />
      <path
         d="m 19453.9,9349.4 c 0,13.6 11.1,24.7 24.7,24.7 13.7,0 24.7,-11.1 24.7,-24.7 0,-13.6 -11,-24.7 -24.7,-24.7 -13.6,0 -24.7,11.1 -24.7,24.7"
         style="fill:#b0d4ff;fill-opacity:1;fill-rule:nonzero;stroke:none"
         id="path110" />
      <path
         d="m 20169.6,9719.7 h -751.3 v 504.8 l 208,191.2 h 543.3 v -696"
         style="fill:#ffffff;fill-opacity:1;fill-rule:nonzero;stroke:none"
         id="path112" />
      <path
         d="m 19414.2,10224.5 h 205.3 l 6.8,191.2 z"
         style="fill:#b0d4ff;fill-opacity:1;fill-rule:nonzero;stroke:none"
         id="path114" />
      <path
         d="m 19796.7,10351.3 c 0,13.6 11.1,24.7 24.7,24.7 13.6,0 24.7,-11.1 24.7,-24.7 0,-13.7 -11.1,-24.7 -24.7,-24.7 -13.6,0 -24.7,11 -24.7,24.7"
         style="fill:#b0d4ff;fill-opacity:1;fill-rule:nonzero;stroke:none"
         id="path116" />
      <path
         d="m 19178.1,9719.7 h -751.4 v 504.8 l 208,191.2 h 543.4 v -696"
         style="fill:#bae8e3;fill-opacity:1;fill-rule:nonzero;stroke:none"
         id="path118" />
      <path
         d="m 18422.7,10224.5 h 205.2 l 6.8,191.2 z"
         style="fill:#a1d6ce;fill-opacity:1;fill-rule:nonzero;stroke:none"
         id="path120" />
      <path
         d="m 18805.1,10351.3 c 0,13.6 11.1,24.7 24.7,24.7 13.7,0 24.8,-11.1 24.8,-24.7 0,-13.7 -11.1,-24.7 -24.8,-24.7 -13.6,0 -24.7,11 -24.7,24.7"
         style="fill:#f99746;fill-opacity:1;fill-rule:nonzero;stroke:none"
         id="path122" />
      <path
         d="m 20381.7,13024.6 h -751.4 v 504.8 l 208,191.1 h 543.4 v -695.9"
         style="fill:#bae8e3;fill-opacity:1;fill-rule:nonzero;stroke:none"
         id="path124" />
      <path
         d="m 19626.3,13529.4 h 205.2 l 6.8,191.1 z"
         style="fill:#a1d6ce;fill-opacity:1;fill-rule:nonzero;stroke:none"
         id="path126" />
      <path
         d="m 20008.7,13656.2 c 0,13.6 11.1,24.7 24.7,24.7 13.7,0 24.7,-11.1 24.7,-24.7 0,-13.7 -11,-24.7 -24.7,-24.7 -13.6,0 -24.7,11 -24.7,24.7"
         style="fill:#f99746;fill-opacity:1;fill-rule:nonzero;stroke:none"
         id="path128" />
      <path
         d="m 12951.5,14237.1 h -1429.2 c -65.6,0 -119.3,53.7 -119.3,119.3 v 1379.4 c 0,65.6 53.7,119.3 119.3,119.3 h 1429.2 c 65.6,0 119.3,-53.7 119.3,-119.3 v -1379.4 c 0,-65.6 -53.7,-119.3 -119.3,-119.3"
         style="fill:#c0d8fb;fill-opacity:1;fill-rule:nonzero;stroke:none"
         id="path130" />
      <path
         d="m 12889.6,14307.2 h -1305.4 c -59.9,0 -108.9,49 -108.9,108.9 V 15676 c 0,60 49,109 108.9,109 h 1305.4 c 59.9,0 109,-49 109,-109 v -1259.9 c 0,-59.9 -49.1,-108.9 -109,-108.9"
         style="fill:#dfebfd;fill-opacity:1;fill-rule:nonzero;stroke:none"
         id="path132" />
      <path
         d="m 12202.4,15637.3 c 0,19.1 15.4,34.6 34.5,34.6 19.1,0 34.6,-15.5 34.6,-34.6 0,-19 -15.5,-34.5 -34.6,-34.5 -19.1,0 -34.5,15.5 -34.5,34.5"
         style="fill:#b7d3f3;fill-opacity:1;fill-rule:nonzero;stroke:none"
         id="path134" />
      <path
         d="m 12481.1,15588.5 c 9.3,16.7 30.3,22.7 47,13.4 16.7,-9.3 22.7,-30.3 13.4,-47 -9.2,-16.6 -30.3,-22.6 -47,-13.4 -16.6,9.3 -22.6,30.3 -13.4,47"
         style="fill:#b7d3f3;fill-opacity:1;fill-rule:nonzero;stroke:none"
         id="path136" />
      <path
         d="m 12720,15398.8 c 16,10.3 37.4,5.7 47.7,-10.4 10.4,-16 5.7,-37.4 -10.3,-47.7 -16,-10.3 -37.4,-5.7 -47.7,10.3 -10.4,16 -5.8,37.4 10.3,47.8"
         style="fill:#b7d3f3;fill-opacity:1;fill-rule:nonzero;stroke:none"
         id="path138" />
      <path
         d="m 12838.3,15105.1 c 19,0 34.5,-15.5 34.5,-34.6 0,-19.1 -15.5,-34.5 -34.5,-34.5 -19.1,0 -34.6,15.4 -34.6,34.5 0,19.1 15.5,34.6 34.6,34.6"
         style="fill:#b7d3f3;fill-opacity:1;fill-rule:nonzero;stroke:none"
         id="path140" />
      <path
         d="m 12777.9,14764.3 c 13.4,-13.5 13.4,-35.4 0,-48.9 -13.5,-13.5 -35.4,-13.5 -48.9,0 -13.5,13.5 -13.5,35.4 0,48.9 13.5,13.4 35.4,13.4 48.9,0"
         style="fill:#b7d3f3;fill-opacity:1;fill-rule:nonzero;stroke:none"
         id="path142" />
      <path
         d="m 12560.9,14546.7 c 13.5,-13.4 13.5,-35.3 0,-48.8 -13.5,-13.5 -35.4,-13.5 -48.8,0 -13.5,13.5 -13.5,35.4 0,48.8 13.4,13.5 35.3,13.5 48.8,0"
         style="fill:#b7d3f3;fill-opacity:1;fill-rule:nonzero;stroke:none"
         id="path144" />
      <path
         d="m 12202.4,14434.6 c 0,19.1 15.4,34.6 34.5,34.6 19.1,0 34.6,-15.5 34.6,-34.6 0,-19 -15.5,-34.5 -34.6,-34.5 -19.1,0 -34.5,15.5 -34.5,34.5"
         style="fill:#b7d3f3;fill-opacity:1;fill-rule:nonzero;stroke:none"
         id="path146" />
      <path
         d="m 11991.6,15588.5 c -9.3,16.7 -30.3,22.7 -47,13.4 -16.7,-9.3 -22.7,-30.3 -13.4,-47 9.3,-16.6 30.3,-22.6 47,-13.4 16.6,9.3 22.7,30.3 13.4,47"
         style="fill:#b7d3f3;fill-opacity:1;fill-rule:nonzero;stroke:none"
         id="path148" />
      <path
         d="m 11752.8,15398.8 c -16.1,10.3 -37.5,5.7 -47.8,-10.4 -10.3,-16 -5.7,-37.4 10.3,-47.7 16,-10.3 37.4,-5.7 47.8,10.3 10.3,16 5.7,37.4 -10.3,47.8"
         style="fill:#b7d3f3;fill-opacity:1;fill-rule:nonzero;stroke:none"
         id="path150" />
      <path
         d="m 11634.5,15105.1 c -19.1,0 -34.6,-15.5 -34.6,-34.6 0,-19.1 15.5,-34.5 34.6,-34.5 19,0 34.5,15.4 34.5,34.5 0,19.1 -15.5,34.6 -34.5,34.6"
         style="fill:#b7d3f3;fill-opacity:1;fill-rule:nonzero;stroke:none"
         id="path152" />
      <path
         d="m 11694.9,14764.3 c -13.5,-13.5 -13.5,-35.4 0,-48.9 13.5,-13.5 35.3,-13.5 48.8,0 13.5,13.5 13.5,35.4 0,48.9 -13.5,13.4 -35.3,13.4 -48.8,0"
         style="fill:#b7d3f3;fill-opacity:1;fill-rule:nonzero;stroke:none"
         id="path154" />
      <path
         d="m 11911.8,14546.7 c -13.5,-13.4 -13.5,-35.3 0,-48.8 13.5,-13.5 35.4,-13.5 48.9,0 13.5,13.5 13.5,35.4 0,48.8 -13.5,13.5 -35.4,13.5 -48.9,0"
         style="fill:#b7d3f3;fill-opacity:1;fill-rule:nonzero;stroke:none"
         id="path156" />
      <path
         d="m 12227.6,15070.5 c 0,19.1 15.5,34.6 34.5,34.6 19.1,0 34.6,-15.5 34.6,-34.6 0,-19.1 -15.5,-34.5 -34.6,-34.5 -19,0 -34.5,15.4 -34.5,34.5"
         style="fill:#b7d3f3;fill-opacity:1;fill-rule:nonzero;stroke:none"
         id="path158" />
      <path
         d="m 12266.9,15070.5 h -9.5 v 431.6 h 9.5 v -431.6"
         style="fill:#b7d3f3;fill-opacity:1;fill-rule:nonzero;stroke:none"
         id="path160" />
      <path
         d="m 12266.5,15060 -17.5,22.3 228.9,179.6 17.4,-22.3 -228.8,-179.6"
         style="fill:#b7d3f3;fill-opacity:1;fill-rule:nonzero;stroke:none"
         id="path162" />
      <path
         d="m 21749.9,3013.3 c -6.8,-92.8 -137.8,-93.8 -286.4,-76.6 -148.6,17.3 -109.1,-20.3 -317.2,-23.2 -208,-2.9 -279.7,65.9 -289.8,95.6 -9,26.4 91.2,48.6 198.4,74.7 13.5,3.2 27.1,6.6 40.6,10 120.9,30.8 200.9,121.2 304.3,200.2 98,74.9 224.4,345.7 224.4,345.7 l 284.2,12.9 c 0,0 -119.7,-242.8 -164.7,-347.5 -26.4,-61.5 -15.1,-137.2 -3.7,-195.2 6.2,-31.6 12.3,-63.9 9.9,-96.6"
         style="fill:#ffb27d;fill-opacity:1;fill-rule:nonzero;stroke:none"
         id="path164" />
      <path
         d="m 21463.5,2936.7 c -148.6,17.3 -109.1,-20.3 -317.2,-23.2 -208,-2.9 -279.7,65.9 -289.8,95.6 -9,26.4 91.2,48.6 198.4,74.7 l 1.3,-2 c 0,0 134,-71.9 305.3,-54.7 139.7,14 282.2,72.3 378.5,82.8 6.2,-31.6 12.3,-63.9 9.9,-96.6 -6.8,-92.8 -137.8,-93.8 -286.4,-76.6"
         style="fill:#233862;fill-opacity:1;fill-rule:nonzero;stroke:none"
         id="path166" />
      <path
         d="m 23713,2994.1 c -6.7,-92.9 -137.7,-94 -286.3,-76.9 -148.6,17.1 -109.1,-20.5 -317.1,-23.6 -208.1,-3.1 -279.9,65.6 -290,95.3 -9,26.4 91.2,48.7 198.4,74.9 13.4,3.3 27,6.7 40.5,10.1 120.9,30.9 200.8,121.4 304.2,200.5 97.9,75 0,518.6 0,518.6 l 312.7,30.4 c 0,0 -15,-373.5 -14.8,-543.3 0.1,-67 30.9,-131.4 42.5,-189.5 6.1,-31.6 12.3,-63.8 9.9,-96.5"
         style="fill:#ffb27d;fill-opacity:1;fill-rule:nonzero;stroke:none"
         id="path168" />
      <path
         d="m 23426.7,2917.2 c -148.6,17.1 -109.1,-20.5 -317.1,-23.6 -208.1,-3.1 -279.9,65.6 -290,95.3 -9,26.4 91.2,48.7 198.4,74.9 l 1.2,-1.9 c 0,0 134.1,-71.8 305.4,-54.4 139.7,14.1 282.1,72.6 378.5,83.1 6.1,-31.6 12.3,-63.8 9.9,-96.5 -6.7,-92.9 -137.7,-94 -286.3,-76.9"
         style="fill:#233862;fill-opacity:1;fill-rule:nonzero;stroke:none"
         id="path170" />
      <path
         d="m 22800.6,10661.4 c -53.8,221.3 24.2,324.4 94.6,379.3 33.4,81.5 71.5,140.2 110.4,162.4 71.1,40.3 156.2,44.8 215.8,41.2 -15.3,15.9 -45.5,21.6 -45.5,21.6 36.9,5.5 119.4,-31.1 119.4,-31.1 513.7,197.9 594.4,-558.5 583.6,-734.2 -10.7,-175.7 -9.3,-382.7 258,-521.1 510,-264.2 -169.5,-1259.8 -169.5,-1259.8 13,142 -642.2,891.4 -984.1,1115.9 -83.2,122.5 -112.8,338.9 -115,356 14.4,-171.6 43.7,-267.9 70,-322.1 -155.8,143.4 -178.9,487.7 -137.7,791.9"
         style="fill:#a9453d;fill-opacity:1;fill-rule:nonzero;stroke:none"
         id="path172" />
      <path
         d="m 23003.5,9824.4 c -1.7,-0.8 165.1,-87.3 290.5,-53 118,32.1 195.1,185.1 193.5,185.5 -50,9.9 -64.4,78.6 -63.3,373.6 l -22.6,-4.4 -379.8,-75.2 c 0,0 8.6,-119.6 8.9,-232.2 0.2,-94.5 -5.5,-184.2 -27.2,-194.3"
         style="fill:#ffb27d;fill-opacity:1;fill-rule:nonzero;stroke:none"
         id="path174" />
      <path
         d="m 23021.8,10250.9 c 0,0 8.6,-119.6 8.9,-232.2 212.5,6 324.9,199.9 370.9,307.4 l -379.8,-75.2"
         style="fill:#ed975d;fill-opacity:1;fill-rule:nonzero;stroke:none"
         id="path176" />
      <path
         d="m 21476.4,3489.2 c -18.6,-58.3 23.2,-118.5 84.4,-121.4 l 148.4,-6.9 157,-4.8 c 39.3,-1.2 76.8,15.9 101.6,46.4 125.4,153.7 511.1,666.1 745.1,1410.6 6.6,20.9 13.5,42 20.9,63.4 154.5,450.6 474.9,1016.2 643.7,1528.1 26.9,81.6 51,158.3 72.6,231 7,23.2 13.7,46.1 20.1,68.6 124.5,432.3 160.5,716.1 193.7,1019.3 l -1219.1,-9.7 c 0,0 -256.6,-1994.8 -968.4,-4224.6"
         style="fill:#2a4e96;fill-opacity:1;fill-rule:nonzero;stroke:none"
         id="path178" />
      <path
         d="m 22615.5,8414.3 c 3.1,-580.1 -85.1,-829 -85.1,-829 0,0 521.9,-265.2 1142.3,-70 7.3,2.3 513.6,117.9 513.6,117.9 -10.3,23.4 -102.7,414.4 -112.8,435.9 -131,281.3 -230.4,404.6 -245.9,491.1 -28.8,161.4 -29.5,328.5 -15.1,486 37.8,417 150.4,763.2 150.4,763.2 -169,38.5 -327.3,106.1 -503.2,172 -40.5,-50.4 -164.2,-103.1 -271.5,-100.7 -123.6,2.8 -163.7,55.7 -157.3,113.4 -131.6,-73.3 -236.7,-142.5 -236.7,-142.5 -111.9,-194.4 -338.9,-383.2 -355.3,-681.4 -4.1,-73.3 176.5,-739.7 176.6,-755.9"
         style="fill:#ffffff;fill-opacity:1;fill-rule:nonzero;stroke:none"
         id="path180" />
      <path
         d="m 23663.9,8349.6 c 53.3,-75.4 155.4,-533.8 409.6,-591.5 -131,326.8 -230.4,470 -245.9,570.5 -28.8,187.5 -29.5,381.5 -15.1,564.5 -85.1,149.1 -148.6,251.4 -148.6,251.4 -6.7,24.1 -135.2,421.5 -176.4,66.3 -41.1,-355.4 116.9,-776.8 176.4,-861.2"
         style="fill:#5f9aa8;fill-opacity:1;fill-rule:nonzero;stroke:none"
         id="path182" />
      <path
         d="m 22950.8,10144.3 c 0,0 502.9,-8.4 503.2,304.9 0.4,313.2 65.5,523.1 -255.6,541.7 -321,18.5 -383.5,-100.9 -409.1,-205.5 -25.5,-104.5 30.7,-630.9 161.5,-641.1"
         style="fill:#ffb27d;fill-opacity:1;fill-rule:nonzero;stroke:none"
         id="path184" />
      <path
         d="m 22969.4,10998.6 c 0,0 137.7,-367.5 349,-421.9 211.3,-54.3 303,2.3 303,2.3 0,0 -162.1,128.8 -195.8,353.5 0,0 -352.3,241 -456.2,66.1"
         style="fill:#a9453d;fill-opacity:1;fill-rule:nonzero;stroke:none"
         id="path186" />
      <path
         d="m 23003.5,10968.7 c 0,0 -102.8,-82 -127.9,-161.8 -25,-79.8 -36.3,-244 -84.2,-238.4 0,0 -103.7,249.8 12.9,391.1 123.6,149.8 199.2,9.1 199.2,9.1"
         style="fill:#a9453d;fill-opacity:1;fill-rule:nonzero;stroke:none"
         id="path188" />
      <path
         d="m 22159.5,8011.6 -237.5,-724.1 135.5,-54.3 392.7,639.7 -290.7,138.7"
         style="fill:#ffb27d;fill-opacity:1;fill-rule:nonzero;stroke:none"
         id="path190" />
      <path
         d="m 22799.9,9894.3 c 0,0 -280.1,-111.2 -361.1,-284.4 -81.1,-173.3 -203.8,-1335.5 -252.7,-1454.9 -48.9,-119.3 -85.6,-213.8 -85.6,-213.8 0,0 141.2,-119 283.2,-127.7 142,-8.8 416.2,2080.8 416.2,2080.8"
         style="fill:#f99746;fill-opacity:1;fill-rule:nonzero;stroke:none"
         id="path192" />
      <path
         d="m 23030.9,9994.1 c 0,0 -290.9,-718.8 -299.5,-864.2 -8.5,-145.5 -34.2,-2378.7 -34.2,-2378.7 0,0 17.1,-102.7 -179.7,-59.9 -196.8,42.7 -248.1,85.5 -248.1,85.5 0,0 188.2,1377.6 136.9,1856.8 -51.3,479.2 393.6,1260.7 393.6,1260.7 l 231,99.8"
         style="fill:#f99746;fill-opacity:1;fill-rule:nonzero;stroke:none"
         id="path194" />
      <path
         d="m 21709.2,3360.9 170.5,-5.2 c 30.4,-1 59.6,12.2 79,35.7 114.6,138.7 514.2,658.2 754.2,1421.7 6.6,20.9 13.5,42 20.9,63.4 154.5,450.6 474.9,1016.2 643.7,1528.1 26.9,81.6 51,158.3 72.6,231 7,23.2 13.7,46.1 20.1,68.6 l -179.5,136.2 c 0,0 -539,-872.7 -705.8,-1694.1 -144.9,-713.4 -725.4,-1571.9 -875.7,-1785.4"
         style="fill:#1e3d70;fill-opacity:1;fill-rule:nonzero;stroke:none"
         id="path196" />
      <path
         d="m 23272,5069.8 c -2.9,-377.9 15,-1220.1 61,-1631.8 4.2,-37.7 36,-66.1 74,-66.1 h 127.2 c 53.6,0 93.7,0.4 120.3,0.8 23.1,0.3 42.8,16.9 47.2,39.5 126.5,643.7 217,1178.4 283.3,1640.5 55.5,386.7 104.7,718.3 142.6,1003.8 38.2,287.2 64.7,527.7 74.2,731 1.5,31.9 2.6,63.1 3.2,93.3 0.6,30.4 0.8,59.9 0.5,88.6 L 23152.2,7072 c 13.3,-699.8 121.5,-1770.1 119.8,-2002.2"
         style="fill:#2a4e96;fill-opacity:1;fill-rule:nonzero;stroke:none"
         id="path198" />
      <path
         d="m 23534.2,3371.9 c 48.1,0 85.4,0.3 111.8,0.7 28,0.4 51.9,20.4 57.3,47.9 125.7,640 215.7,1172.1 281.7,1632.2 55.5,386.7 104.7,718.3 142.6,1003.8 38.2,287.2 64.7,527.7 74.2,731 l -386.5,-227.4 c 0,0 246.7,-87 152.6,-745.9 -94.1,-658.8 -302.7,-2349 -433.7,-2442.3"
         style="fill:#1e3d70;fill-opacity:1;fill-rule:nonzero;stroke:none"
         id="path200" />
      <path
         d="m 23484.4,6793.9 c 0,0 74.2,-268 330.9,-233.8 256.7,34.2 621.7,188.2 621.7,188.2 0,0 -109.7,346.7 -246.1,802 -165.1,551.3 -369.5,1262 -465.9,1710.3 -27,125.6 -45.5,230.5 -52.3,305.7 l -213,413.2 c 0,0 -317.5,-712.7 -334.7,-892.4 -17.1,-179.7 359.4,-2293.2 359.4,-2293.2"
         style="fill:#f99746;fill-opacity:1;fill-rule:nonzero;stroke:none"
         id="path202" />
      <path
         d="m 23740.7,9113.9 -281,865.6 c 0.7,-0.4 355,-105.4 533.2,-195.5 0,0 111.3,-143.6 180.2,-474.8 0,0 72.9,-795.4 -89.7,-1086.3 0,0 -513.4,-102.7 -1334.8,179.7 v 188.2 c 0,0 898.4,-47 1082.4,-68.4 l -90.3,591.5"
         style="fill:#ffb27d;fill-opacity:1;fill-rule:nonzero;stroke:none"
         id="path204" />
      <path
         d="m 23495.8,8710.6 c 11.5,-290.9 79.9,-855.6 690.3,-1157.9 1.6,-0.8 3.2,-1.7 4.8,-2.4 -165.1,551.3 -369.5,1262 -465.9,1710.3 -112.1,-167.5 -235.4,-389.8 -229.2,-550"
         style="fill:#ed7d2b;fill-opacity:1;fill-rule:nonzero;stroke:none"
         id="path206" />
      <path
         d="m 23459.7,9979.5 c 0,0 521,-36.8 646.5,-316.3 125.5,-279.5 165.4,-1209.3 5.7,-1483.1 0,0 -219.9,-62.6 -608.8,10.1 -4.8,0.9 -9.6,1.8 -14.4,2.7 0,0 -124.1,303.8 -12.8,363.7 0,0 328,-17.1 293.7,91.3 -34.2,108.3 -309.9,1331.6 -309.9,1331.6"
         style="fill:#f99746;fill-opacity:1;fill-rule:nonzero;stroke:none"
         id="path208" />
      <path
         d="m 22153.3,8474.5 15.3,-49.3 855,265.9 c 0,0 11.4,13 5.8,30.3 -6.2,19 -21.1,19.1 -21.1,19.1 l -855,-266"
         style="fill:#a9453d;fill-opacity:1;fill-rule:nonzero;stroke:none"
         id="path210" />
      <path
         d="m 22091.5,8427.9 61.8,46.6 15.3,-49.3 z"
         style="fill:#a9453d;fill-opacity:1;fill-rule:nonzero;stroke:none"
         id="path212" />
      <path
         d="m 21955.8,7307.3 c 0,0 -216.9,-119.9 -245.5,-211.2 -28.5,-91.3 -8.9,-282.5 25.5,-279.7 34.5,2.9 85.8,205.5 114.4,219.8 28.5,14.2 68.5,57 68.5,25.6 0,-31.3 -28.6,-88.4 -14.3,-97 14.3,-8.5 59.9,79.9 91.3,97 31.4,17.2 44.6,158.3 75.1,196.2 30.5,37.9 -115,49.3 -115,49.3"
         style="fill:#ffb27d;fill-opacity:1;fill-rule:nonzero;stroke:none"
         id="path214" />
      <path
         d="m 22748.6,8590.8 c 0,0 -194,119.5 -275.4,101.1 -81.3,-18.4 -288.7,-168.6 -189,-201.1 99.8,-32.5 180.6,1.6 218.9,-22 38.4,-23.6 66.7,-66.8 245.5,-66.2 178.7,0.6 0,188.2 0,188.2"
         style="fill:#ffb27d;fill-opacity:1;fill-rule:nonzero;stroke:none"
         id="path216" />
      <path
         d="m 7494.6,9874.2 c -32.51,62.7 709.38,288.5 721.13,-330.4 0,0 1389.77,34.2 726.19,808.8 -229.73,268.2 -206.09,489.9 -199.21,696.3 6.99,206.5 -143.09,806.4 -657.5,746 0,0 -134.71,54.8 -302.83,-32.5 C 7400.04,11564.1 6543.56,9646 7494.6,9874.2"
         style="fill:#163560;fill-opacity:1;fill-rule:nonzero;stroke:none"
         id="path218" />
      <path
         d="m 9766.7,9182.3 c 0,0 90.46,137.7 163.37,140.4 72.93,2.7 207.93,40.5 197.13,13.5 -10.8,-27 -94.5,-29.7 -102.6,-45.9 -8.1,-16.2 124.2,-40.5 162,-43.2 37.8,-2.7 126.9,0 124.2,-18.9 -2.7,-18.9 -160.6,-97.2 -272,-86.4 -111.43,10.8 -249.14,-32.4 -249.14,-32.4 l -22.96,72.9"
         style="fill:#ffb27d;fill-opacity:1;fill-rule:nonzero;stroke:none"
         id="path220" />
      <path
         d="m 8458.4,9137.7 c 0,0 49.17,-97.3 138.36,-209.2 107.5,-134.6 273.25,-290.2 481.37,-320.9 99.39,-14.6 196.6,6.7 285.96,46.4 0.24,0.1 0.32,0.1 0.32,0.1 252.75,112.2 442.8,370.2 442.8,370.2 44.55,121.5 -28.35,203.9 -28.35,203.9 0,0 -510.36,-114.8 -558.97,-90.5 -48.61,24.3 -332.14,841.2 -399.62,943.8 -67.56,102.6 -297.63,155.9 -297.63,155.9 L 8458.4,9137.7"
         style="fill:#b0d0ff;fill-opacity:1;fill-rule:nonzero;stroke:none"
         id="path222" />
      <path
         d="m 8596.76,8928.5 c 107.5,-134.6 273.25,-290.2 481.37,-320.9 99.39,-14.6 196.6,6.7 285.96,46.4 -9.89,-1.3 -262.31,-32.5 -362.93,147.5 -102.63,183.7 -213.62,475.3 -366.08,378.1 -65.78,-41.9 -62.86,-146.2 -38.32,-251.1"
         style="fill:#98baf4;fill-opacity:1;fill-rule:nonzero;stroke:none"
         id="path224" />
      <path
         d="m 6554.33,3628.7 c 0,0 -155.73,-142.2 -125.34,-243.1 30.39,-101 170.92,-168.3 189.91,-291.8 19,-123.4 94.96,-190.7 163.33,-190.7 68.37,0 325.95,0 325.95,0 0,0 50.33,86.9 -71.22,113 -121.54,26.2 -167.37,171.2 -159.77,305.9 7.6,134.6 -11.4,314.1 -11.4,314.1 l -258.28,59.9 -53.18,-67.3"
         style="fill:#233862;fill-opacity:1;fill-rule:nonzero;stroke:none"
         id="path226" />
      <path
         d="m 7872.43,3568.3 c 0,0 -56.02,-602 12.35,-635.7 l 874.97,1.8 c 0,0 0,101 -140.54,123.4 -140.54,22.5 -387.43,104.7 -429.21,288 -41.78,183.3 -317.57,222.5 -317.57,222.5"
         style="fill:#233862;fill-opacity:1;fill-rule:nonzero;stroke:none"
         id="path228" />
      <path
         d="m 7248.91,7887.7 c 180.05,403.8 290.23,519.7 269.2,645 -15.66,93.3 47.66,1739.2 47.66,1739.2 21.36,6.6 64.19,12.6 87.61,17.8 73.85,16.4 134.98,68.2 160.42,139.5 30.64,85.8 55.01,212.5 54.44,371.4 l 23.07,-4.6 387.81,-76.8 c 0,0 -8.83,-122 -9.09,-237 0,-1 -0.01,-1.9 -0.01,-2.9 -0.47,-99.8 65.04,-187.9 160.98,-215.6 48.98,-14.2 91.6,-26.3 91.6,-26.3 0,0 142.4,-406.5 169.6,-824.2 27.2,-417.7 -258.95,-599.1 2.16,-1433.7 266.58,-852.5 -1544.92,-314.9 -1445.45,-91.8"
         style="fill:#ffb27d;fill-opacity:1;fill-rule:nonzero;stroke:none"
         id="path230" />
      <path
         d="m 8279.12,10719.2 c 0,0 -8.83,-122 -9.09,-237 -217.01,6.1 -331.72,204.1 -378.72,313.8 l 387.81,-76.8"
         style="fill:#e8945b;fill-opacity:1;fill-rule:nonzero;stroke:none"
         id="path232" />
      <path
         d="m 8351.59,10610.4 c 0,0 -513.45,-8.5 -513.8,311.3 -0.35,319.8 -66.86,534.1 260.95,553.1 327.81,18.9 391.64,-103.1 417.72,-209.8 26.08,-106.7 -31.32,-644.2 -164.87,-654.6"
         style="fill:#ffb27d;fill-opacity:1;fill-rule:nonzero;stroke:none"
         id="path234" />
      <path
         d="m 8332.59,11482.6 c 0,0 -140.58,-375.2 -356.33,-430.7 -215.75,-55.5 -309.34,2.3 -309.34,2.3 0,0 165.5,131.5 199.84,361 0,0 359.78,246 465.83,67.4"
         style="fill:#163560;fill-opacity:1;fill-rule:nonzero;stroke:none"
         id="path236" />
      <path
         d="m 8297.74,11452.2 c 0,0 104.25,-39 147.16,-115 41.96,-74.4 77.7,-172.9 69.41,-293.7 0,0 105.91,255.1 -13.12,399.3 -126.21,153 -203.45,9.4 -203.45,9.4"
         style="fill:#163560;fill-opacity:1;fill-rule:nonzero;stroke:none"
         id="path238" />
      <path
         d="m 8239.87,10808.8 c 0,0 35.43,-46.7 106.32,-43.3 57.09,2.7 79.11,52.2 79.11,52.2 0,0 -104.88,25.2 -185.43,-8.9"
         style="fill:#ebf3fa;fill-opacity:1;fill-rule:nonzero;stroke:none"
         id="path240" />
      <path
         d="m 7199.36,9543.8 c 0,0 -13.05,-183.8 0,-404.4 8.66,-146.2 156.58,-342.1 177.56,-390.5 52.66,-121.5 112.04,-141.3 112.04,-141.3 l 459.4,-112.6 161.54,-39.5 509.38,152.1 c 0,0 232.01,647.6 138.85,1012.2 -93.16,364.5 -235.49,617.6 -235.49,617.6 0,0 -415.66,-406.9 -956.89,34.6 l -366.39,-728.2"
         style="fill:#b0d0ff;fill-opacity:1;fill-rule:nonzero;stroke:none"
         id="path242" />
      <path
         d="m 7333.82,9079.7 c 8.67,-146.2 22.12,-282.4 43.1,-330.8 52.66,-121.5 112.04,-141.3 112.04,-141.3 l 459.4,-112.6 199.53,58.7 c 0,0 -666.06,100.9 -592.26,674 l -221.81,-148"
         style="fill:#f2ccaa;fill-opacity:1;fill-rule:nonzero;stroke:none"
         id="path244" />
      <path
         d="m 8586.88,8509.3 c 0,0 252.27,-785.2 268.47,-1052.5 16.2,-267.3 -482.21,-3797.7 -502.26,-3920.9 C 8334.18,3419.8 8190,3345.8 8190,3345.8 c 0,0 -66.31,-39.1 -160.95,-12.4 -131.32,37.1 -172.82,81.5 -172.82,81.5 0,0 -196.35,2517.8 -74.84,3417.2 121.51,899.4 122.94,1677.2 122.94,1677.2 h 682.55"
         style="fill:#ed7d2b;fill-opacity:1;fill-rule:nonzero;stroke:none"
         id="path246" />
      <path
         d="m 7518.11,8532.7 c 0,0 -384.8,-516.3 -420.67,-865.3 -35.87,-349 -56.28,-1574.9 -132.71,-1915.2 -76.42,-340.2 -357.22,-995 -357.22,-2056.2 0,0 29.18,-60.8 119.31,-93.2 28.81,-10.4 67.43,-20.5 104.92,-29 74.32,-17.1 150.57,19.2 184.5,87.5 189.83,382.2 794.55,1615 825.55,1870.9 21.95,181.1 212.88,1379.7 629.37,2083 99.99,168.8 -61.37,840.3 -61.37,840.3 l -891.68,77.2"
         style="fill:#f99746;fill-opacity:1;fill-rule:nonzero;stroke:none"
         id="path248" />
      <path
         d="m 8251.28,10800.2 c 0,0 8.88,-37.7 102.65,-31.9 0,0 78.72,4.9 76.31,46.3 0,0 -76.33,29.5 -178.96,-14.4"
         style="fill:#ffffff;fill-opacity:1;fill-rule:nonzero;stroke:none"
         id="path250" />
      <path
         d="m 8627.18,8630.5 c 0,0 -101.27,-80.1 -302.45,-84.1 -240.3,-4.9 -835.75,61.2 -835.75,61.2 0,0 -26.46,-73.9 -25.38,-151.9 0,0 727.24,-183.5 1148.61,-26.8 0,0 54.34,102.2 14.97,201.6"
         style="fill:#233862;fill-opacity:1;fill-rule:nonzero;stroke:none"
         id="path252" />
      <path
         d="m 8309.08,8463.4 c 0,-48.4 32.88,-87.8 73.3,-87.8 40.43,0 73.31,39.4 73.31,87.8 0,48.4 -32.88,87.8 -73.31,87.8 -40.42,0 -73.3,-39.4 -73.3,-87.8 z m -36.35,0 c 0,68.4 49.18,124.1 109.65,124.1 60.47,0 109.66,-55.7 109.66,-124.1 0,-68.4 -49.19,-124.1 -109.66,-124.1 -60.47,0 -109.65,55.7 -109.65,124.1"
         style="fill:#ffffff;fill-opacity:1;fill-rule:nonzero;stroke:none"
         id="path254" />
      <path
         d="m 6706.09,8488.5 745.08,-648.8 888.08,1019.9 -745.08,648.8 -888.08,-1019.9"
         style="fill:#b5453c;fill-opacity:1;fill-rule:nonzero;stroke:none"
         id="path256" />
      <path
         d="m 7657.03,8486.1 c 0,0 272.99,-31.9 272.14,-96.7 -0.85,-64.8 -68.02,-197.9 -101.74,-203.9 -33.72,-5.9 -222.17,180.1 -222.17,180.1 l 51.77,120.5"
         style="fill:#ffb27d;fill-opacity:1;fill-rule:nonzero;stroke:none"
         id="path258" />
      <path
         d="m 7565.75,10272 c 0,0 -364.47,-25.6 -504.18,-365.2 -139.72,-339.7 -404.8,-909.9 -404.8,-1005.8 0,-96 148.07,-391.7 943.31,-561.7 0,0 82.25,86.5 77.27,154.9 0,0 -496.41,426.4 -495.08,476.3 2.52,94.2 81.38,218.7 517.22,654.6 118.49,118.6 -133.74,646.9 -133.74,646.9"
         style="fill:#b0d0ff;fill-opacity:1;fill-rule:nonzero;stroke:none"
         id="path260" />
      <path
         d="m 11592.6,2921.7 h -3.5 c -20.3,0 -36.7,16.7 -36.2,37.1 l 55,2384 162,18.9 -138.2,-2403.1 c -1.2,-20.7 -18.3,-36.9 -39.1,-36.9"
         style="fill:#b0d4ff;fill-opacity:1;fill-rule:nonzero;stroke:none"
         id="path262" />
      <path
         d="m 10648.4,2921.7 h -3.5 c -20.3,0 -36.7,16.7 -36.2,37.1 l 55,2384 162,18.9 -138.2,-2403.1 c -1.2,-20.7 -18.3,-36.9 -39.1,-36.9"
         style="fill:#95c0f4;fill-opacity:1;fill-rule:nonzero;stroke:none"
         id="path264" />
      <path
         d="m 13253.8,2921.7 h 3.5 c 20.3,0 36.7,16.7 36.3,37.1 l -55.1,2384 -162,18.9 138.2,-2403.1 c 1.2,-20.7 18.3,-36.9 39.1,-36.9"
         style="fill:#b0d4ff;fill-opacity:1;fill-rule:nonzero;stroke:none"
         id="path266" />
      <path
         d="m 10541,5490.7 v 1633.7 c 0,287.4 233.1,520.5 520.5,520.5 h 1177 c 287.5,0 520.5,-233.1 520.5,-520.5 V 5428.3 l -2218,62.4"
         style="fill:#b0d4ff;fill-opacity:1;fill-rule:nonzero;stroke:none"
         id="path268" />
      <path
         d="m 12969.9,5232.8 h -2272.6 c -86.3,0 -156.3,70 -156.3,156.3 v 101.6 h 2428.9 v -257.9"
         style="fill:#95c0f4;fill-opacity:1;fill-rule:nonzero;stroke:none"
         id="path270" />
      <path
         d="m 13242.3,5232.8 h -1719.4 c -63.8,0 -115.5,51.7 -115.5,115.5 v 26.8 c 0,63.9 51.7,115.6 115.5,115.6 h 1719.4 c 63.8,0 115.5,-51.7 115.5,-115.6 v -26.8 c 0,-63.8 -51.7,-115.5 -115.5,-115.5"
         style="fill:#b0d4ff;fill-opacity:1;fill-rule:nonzero;stroke:none"
         id="path272" />
      <path
         d="M 13175.5,5897.8 C 13006.9,5604.3 12794.8,5491 12794.8,5491 h -882.3 c 0,0 1391.6,630.6 1263,406.8"
         style="fill:#233862;fill-opacity:1;fill-rule:nonzero;stroke:none"
         id="path274" />
      <path
         d="m 12497.9,3627.1 c -23,-26.3 -26,-55.8 -14.6,-87.2 0,-0.1 0.1,-0.3 0.2,-0.4 21.1,-58.2 90.6,-123.1 171.4,-188 10.3,-8.3 19.5,-15.9 27.5,-22.9 2.1,-1.8 4.2,-3.7 6.1,-5.5 1.7,-1.5 3.2,-3 4.8,-4.3 75.3,-69.4 46.9,-85.3 182.2,-226.2 154.3,-160.5 260.5,-163.4 290.7,-148.8 25.6,12.5 -26.3,97.6 -83.9,193.3 -2.8,4.6 -5.5,9.3 -8.4,13.9 -7.6,12.8 -15.3,25.7 -22.9,38.5 -67.4,115.1 -50.1,169.1 -34.1,340.5 13,139.3 216.7,778 216.7,778 l -295.7,51 c 0,0 -89,-508.7 -187.1,-587 -52.4,-41.8 -111.2,-42.3 -161.6,-73.2 -3.5,-2.2 -7,-4.4 -10.4,-6.7 -28.7,-19 -57.9,-38.6 -80.9,-65"
         style="fill:#ffb27d;fill-opacity:1;fill-rule:nonzero;stroke:none"
         id="path276" />
      <path
         d="m 12497.9,3627.1 c -23,-26.3 -26,-55.8 -14.6,-87.2 0,-0.1 0.1,-0.3 0.2,-0.4 25.8,-58.1 93.6,-122.7 171.6,-187.4 10.2,-8.5 19.2,-16.2 27.3,-23.5 2.1,-1.8 4.2,-3.7 6.1,-5.5 1.7,-1.5 3.2,-3 4.8,-4.3 75.3,-69.4 46.9,-85.3 182.2,-226.2 154.3,-160.5 260.5,-163.4 290.7,-148.8 25.6,12.5 -26.3,97.6 -83.9,193.3 -30,11 -169.5,67.7 -275,202.6 -92.9,118.5 -154.8,270.8 -218.1,359.1 -3.5,-2.2 -7,-4.4 -10.4,-6.7 -28.7,-19 -57.9,-38.6 -80.9,-65"
         style="fill:#233862;fill-opacity:1;fill-rule:nonzero;stroke:none"
         id="path278" />
      <path
         d="m 14881.6,3811.8 c 18.3,-91.3 148.4,-76.1 293.7,-40.5 145.3,35.5 110.8,-6.8 317.6,16.1 206.8,22.9 269.5,100.1 275.8,130.8 5.6,27.3 -96.6,36.9 -206.2,49.5 -13.8,1.6 -27.6,3.3 -41.5,5 -123.7,15.5 -214.3,95.4 -326.8,161 -106.5,62.1 -265.4,315.2 -265.4,315.2 l -283.6,-22.4 c 0,0 148.8,-226.1 206.4,-324.4 33.9,-57.8 32.1,-134.3 27.9,-193.3 -2.2,-32.1 -4.3,-64.9 2.1,-97"
         style="fill:#ffb27d;fill-opacity:1;fill-rule:nonzero;stroke:none"
         id="path280" />
      <path
         d="m 15175.3,3771.3 c 145.3,35.5 110.8,-6.8 317.6,16.1 206.8,22.9 269.5,100.1 275.8,130.8 5.6,27.3 -96.6,36.9 -206.2,49.5 l -1,-2.1 c 0,0 -124,-87.9 -296.2,-92 -140.3,-3.4 -288.9,36.8 -385.8,35.2 -2.2,-32.1 -4.3,-64.9 2.1,-97 18.3,-91.3 148.4,-76.1 293.7,-40.5"
         style="fill:#233862;fill-opacity:1;fill-rule:nonzero;stroke:none"
         id="path282" />
      <path
         d="m 13794.6,5625.5 -265.1,-713.5 -346.2,-931.7 c 0,0 -93.9,-9 -183.9,16.8 -82.8,24 -177.9,86.6 -177.9,86.6 0,0 96.2,1000.3 275.5,1574.5 45.9,147.4 97.4,266.6 154.3,333.8 277.9,328.5 543.3,-366.5 543.3,-366.5"
         style="fill:#233862;fill-opacity:1;fill-rule:nonzero;stroke:none"
         id="path284" />
      <path
         d="m 13525,6758.6 c -173.7,56 -669.1,-15.9 -1166.8,-113.3 l -104.2,171.9 -1075.1,83.9 c 0,0 -354.7,-786.7 -160.5,-1287.9 28.6,-73.7 85.3,-120.9 182,-122.5 0,0 15.6,0 15.7,0 0,0 639.8,0.4 847.5,0.4 534.7,0 1131.5,367.5 1208.7,382.9 126.4,25.3 176.9,-227.5 303.3,-492.8 126.4,-265.4 1187.9,-1175.3 1187.9,-1175.3 0,0 163.1,-1.6 230.5,23.7 72.5,27.2 99,62.5 99,62.5 0,0 -1176.2,2340.1 -1568,2466.5"
         style="fill:#2b478b;fill-opacity:1;fill-rule:nonzero;stroke:none"
         id="path286" />
      <path
         d="m 12211.7,9947.4 c -137.7,72.3 -347.3,82.1 -381.3,86.7 -407.4,54.7 -652.6,-537.2 -667,-716.6 -26.6,-330.6 -201.5,-381 -447.6,-588 -493.6,-415.2 -348.9,-897.6 -79,-1076.8 162,-107.6 447.4,0 447.4,0 4,-2.8 780.6,434.1 1163.4,644.9 573.9,81.6 315,1465.5 -35.9,1649.8"
         style="fill:#233862;fill-opacity:1;fill-rule:nonzero;stroke:none"
         id="path288" />
      <path
         d="m 11926.8,8477 c 1.7,-1.1 -188.4,-65.9 -315.4,-9.7 -119.6,52.9 -210.1,249.5 -208.4,249.6 54.4,2.5 114.1,50.1 160.1,362.1 l 23.2,-8.4 389.3,-140.1 c 0,0 -28.2,-124.9 -46.5,-243.8 -15.3,-99.9 -23.6,-195.6 -2.3,-209.7"
         style="fill:#ffb27d;fill-opacity:1;fill-rule:nonzero;stroke:none"
         id="path290" />
      <path
         d="m 11975.6,8930.5 c 0,0 -28.2,-124.9 -46.5,-243.8 -223.6,40.2 -311.4,263 -342.8,383.9 l 389.3,-140.1"
         style="fill:#ed975d;fill-opacity:1;fill-rule:nonzero;stroke:none"
         id="path292" />
      <path
         d="m 12033.6,8806.5 c 0,0 -532.7,71.6 -483.1,402.6 49.6,331 14.3,563.2 356.5,531.6 342.2,-31.7 389.2,-167.9 399.5,-282.4 10.3,-114.5 -133.1,-661.8 -272.9,-651.8"
         style="fill:#ffb27d;fill-opacity:1;fill-rule:nonzero;stroke:none"
         id="path294" />
      <path
         d="m 12287.1,9639.7 c 0,0 -341,-293.8 -572.9,-317.5 -232,-23.7 -319.8,50.8 -319.8,50.8 0,0 136.7,113.5 219,296.7 24.2,54 75.5,91 134.5,96.1 165.6,14.3 479.5,20.8 539.2,-126.1"
         style="fill:#233862;fill-opacity:1;fill-rule:nonzero;stroke:none"
         id="path296" />
      <path
         d="m 12074,9666.1 c 0,0 114,-110.3 150,-192.1 34.6,-79 45,-267.8 17.4,-342.8 0,0 177.8,345.6 77.1,513.5 -106.7,178.1 -244.5,21.4 -244.5,21.4"
         style="fill:#233862;fill-opacity:1;fill-rule:nonzero;stroke:none"
         id="path298" />
      <path
         d="m 12375.3,7692.3 c -16.1,-1078.3 -4.4,-852.9 -122.3,-955.3 -28.5,-24.6 -108.4,-39.3 -213.5,-46.2 -330.7,-22 -911.9,32.5 -934,93.6 -76.3,211.4 -22.4,277.1 -86,600.8 -6.7,34.4 -14.9,71.7 -24.5,112.3 -53.1,222.3 -104.7,297.9 83.5,655.1 170.7,323.5 348,586.1 364,576.6 450.3,-267.3 486.6,-42.6 486.6,-42.6 0,0 454.1,-468.3 446.2,-994.3"
         style="fill:#ffffff;fill-opacity:1;fill-rule:nonzero;stroke:none"
         id="path300" />
      <path
         d="m 13529.5,4912 -346.2,-931.7 c 0,0 -93.9,-9 -183.9,16.8 -82.8,24 -177.9,86.6 -177.9,86.6 0,0 96.2,1000.3 275.5,1574.5 l 432.5,-746.2"
         style="fill:#2b478b;fill-opacity:1;fill-rule:nonzero;stroke:none"
         id="path302" />
      <path
         d="m 11929.1,8686.7 c 0,0 463.4,-78.6 517.8,-278.1 54.4,-199.5 374.6,-1372.3 374.6,-1372.3 0,0 -235.5,-42.4 -344.4,66.4 -108.8,108.9 -378.6,1009.7 -378.6,1009.7 l -169.4,574.3"
         style="fill:#ffffff;fill-opacity:1;fill-rule:nonzero;stroke:none"
         id="path304" />
      <path
         d="m 12039.5,6690.8 c -330.7,-22 -911.9,32.5 -934,93.6 -76.3,211.4 -22.4,277.1 -86,600.8 l 159.4,449.1 c 0,0 -26.3,-500.1 121.1,-631.6 147.4,-131.5 603.8,-253.9 675.5,-363.8 34.6,-52.8 57.4,-105.6 64,-148.1"
         style="fill:#ebf3ff;fill-opacity:1;fill-rule:nonzero;stroke:none"
         id="path306" />
      <path
         d="m 11660.7,6901.1 c 0,0 326.2,72.6 378.8,43.7 52.6,-29 181.2,-134.4 197.4,-171.1 16.1,-36.7 -117.2,27.9 -160.6,39.5 -28,7.5 -102,-18.1 -138.5,-30.3 -154,-51.4 -248.3,-25 -248.3,-25 l -28.8,143.2"
         style="fill:#ffb27d;fill-opacity:1;fill-rule:nonzero;stroke:none"
         id="path308" />
      <path
         d="m 11442.2,8729.5 c 0,0 -438,-27 -589.6,-238.5 -213.5,-297.7 -636.9,-1566.3 -394.2,-1735.6 273.3,-190.5 1243.7,-49.8 1243.7,-49.8 0,0 32.3,150.9 -12.6,224 -45,73 -775.1,190.9 -808.8,224.6 -33.7,33.7 421.2,657.2 421.2,758.3 0,101.1 140.3,817 140.3,817"
         style="fill:#ffffff;fill-opacity:1;fill-rule:nonzero;stroke:none"
         id="path310" />
      <path
         d="m 12055.3,6854 c 0,0 68.3,-88.2 90.7,-98.7 22.4,-10.5 36.9,-7.9 36.9,-7.9 l -46,82.9 -81.6,23.7"
         style="fill:#ffb27d;fill-opacity:1;fill-rule:nonzero;stroke:none"
         id="path312" />
      <path
         d="m 12039.5,6944.8 198.7,-96.5 c 0,0 -8.5,-13.8 -32.9,-12.7 -24.5,1.1 -86.2,23.7 -86.2,23.7 l -79.6,85.5"
         style="fill:#ffb27d;fill-opacity:1;fill-rule:nonzero;stroke:none"
         id="path314" />
      <path
         d="m 12146,6620.2 h 1571.9 l 472.9,1175.9 H 12621.3 L 12146,6620.2"
         style="fill:#f99746;fill-opacity:1;fill-rule:nonzero;stroke:none"
         id="path316" />
      <path
         d="m 13736.3,6666.1 h -2075.6 v -45.9 h 2057.2 l 18.4,45.9"
         style="fill:#ed7d2b;fill-opacity:1;fill-rule:nonzero;stroke:none"
         id="path318" />
      <path
         d="m 13321.1,7208.2 c 11.9,41.3 -12,74.8 -53.4,74.8 -41.3,0 -84.4,-33.5 -96.3,-74.8 -11.8,-41.3 12.1,-74.9 53.4,-74.9 41.4,0 84.5,33.6 96.3,74.9"
         style="fill:#ffffff;fill-opacity:1;fill-rule:nonzero;stroke:none"
         id="path320" />
      <path
         d="m 20355.8,2878.1 h 4.6 c 26.9,0 48.6,23.5 48,52 l -72.8,3338 -214.2,26.5 182.7,-3364.7 c 1.6,-29.1 24.3,-51.8 51.7,-51.8"
         style="fill:#78acea;fill-opacity:1;fill-rule:nonzero;stroke:none"
         id="path322" />
      <path
         d="m 11668.5,2878.1 h -4.6 c -26.9,0 -48.6,23.5 -48,52 l 72.8,3338 214.2,26.5 -182.7,-3364.7 c -1.6,-29.1 -24.3,-51.8 -51.7,-51.8"
         style="fill:#78acea;fill-opacity:1;fill-rule:nonzero;stroke:none"
         id="path324" />
      <path
         d="m 20613.9,6206.7 h -9167.5 c -75.1,0 -136,60.9 -136,136 v 130.8 c 0,75.1 60.9,136 136,136 h 9167.5 c 75.1,0 135.9,-60.9 135.9,-136 v -130.8 c 0,-75.1 -60.8,-136 -135.9,-136"
         style="fill:#78acea;fill-opacity:1;fill-rule:nonzero;stroke:none"
         id="path326" />
      <path
         d="m 9448.47,12330.4 c -34.63,857.1 683.73,1237.9 1418.33,1237.9 734.5,0 1533.9,-190.3 1603.1,-1330 44.6,-733.2 -346.3,-1184.3 -1471.7,-1184.3 -379.6,0 -674.6,59.9 -900.6,166.6 l -562.56,-499.9 276.47,691 c -244.91,227.7 -348.09,548.9 -363.04,918.7"
         style="fill:#dfedfb;fill-opacity:1;fill-rule:nonzero;stroke:none"
         id="path328" />
      <path
         d="m 26143.5,2881.8 c 0,0 20.6,161 68.5,256.7 47.9,95.8 352.5,34.9 352.5,34.9 0,0 60.9,-52.3 74,-296 l -495,4.4"
         style="fill:#233862;fill-opacity:1;fill-rule:nonzero;stroke:none"
         id="path330" />
      <path
         d="m 25105.7,2884 c 71.5,43.7 30.8,369.6 30.8,369.6 0,0 -333.5,266.8 -379.4,62.5 -45.8,-204.3 -316.8,-296 -471.1,-321 -106.4,-17.3 -139.4,-76.2 -149.6,-111.1 h 969.3"
         style="fill:#233862;fill-opacity:1;fill-rule:nonzero;stroke:none"
         id="path332" />
      <path
         d="m 25796.5,5254.4 c -13.6,-74.8 -22.2,-136.2 -24.5,-180.2 -31,-604.7 -509.1,-1987.5 -594.6,-2019.7 -132.3,-49.9 -340.6,56.2 -449.6,90.9 -45.2,14.4 -75.7,60 -65.6,106.2 236.7,1088.4 323.7,2655.6 355.4,3583.5 16,467.3 96.2,790.1 96.2,790.1 0,0 1166,311.1 1172.9,-82.4 6.1,-348.2 -386.2,-1713.9 -490.2,-2288.4"
         style="fill:#213f7a;fill-opacity:1;fill-rule:nonzero;stroke:none"
         id="path334" />
      <path
         d="m 25796.5,5254.4 -778.9,1580.7 c 16,467.3 96.2,790.1 96.2,790.1 0,0 1166,311.1 1172.9,-82.4 6.1,-348.2 -386.2,-1713.9 -490.2,-2288.4"
         style="fill:#233862;fill-opacity:1;fill-rule:nonzero;stroke:none"
         id="path336" />
      <path
         d="m 25537.1,7541.4 616.3,-4467.3 c 0,0 270.7,-65.3 481.2,-13.1 0,0 180.5,2376 165.5,2950.4 -15.1,574.4 129.5,1537 -33,1643.1 -162.5,106.2 -1230,-113.1 -1230,-113.1"
         style="fill:#213f7a;fill-opacity:1;fill-rule:nonzero;stroke:none"
         id="path338" />
      <path
         d="m 26887.2,7615.9 c 3,-40.4 -22.8,-77.1 -61.7,-88.4 -86,-24.9 -185.1,-42.3 -376.3,-81.9 -179.6,-37.3 -421.2,-70.3 -718,-72.2 -472.2,-3 -650.9,159.8 -650.9,159.8 -20.4,-0.4 10.7,98.4 38.7,568.2 9.5,159.2 18.6,360.9 25.2,615.9 6,229.4 10,502 10.4,825.3 0.5,389 602.6,807.4 613.7,807.4 l 0.1,-0.1 c 0,-56 88.3,-159.4 224.2,-168.3 161.4,-10.6 359.3,69.7 359.3,162.7 0,0.9 291.7,-466.7 395.3,-964.9 52.4,-250.7 31.2,-244 140,-1763.5"
         style="fill:#b0d0ff;fill-opacity:1;fill-rule:nonzero;stroke:none"
         id="path340" />
      <path
         d="m 25768.3,10350 c 0,0 -559.9,4.8 -694.6,-184.2 -134.7,-189 -430.1,-1205.5 -276,-1543.7 154.2,-338.3 442.6,139.9 602.7,347.1 160.1,207.2 367.9,1380.8 367.9,1380.8"
         style="fill:#b0d0ff;fill-opacity:1;fill-rule:nonzero;stroke:none"
         id="path342" />
      <path
         d="m 25762.6,10435.5 0.3,-57.9 c 0,0 -15.8,-181 207.1,-207.4 222.9,-26.5 388.3,33.8 382.2,173.4 -20.1,108.2 -38.7,219.2 -40.2,308.7 -0.5,33.3 1.8,68.5 8,108.4 l -431.9,8.6 -127.2,-20.8 1.7,-313"
         style="fill:#ffb27d;fill-opacity:1;fill-rule:nonzero;stroke:none"
         id="path344" />
      <path
         d="m 25760.9,10748.5 1.7,-313 c 45.8,-21.4 97.6,-34.4 155.6,-34.4 198.5,0 326.8,145.6 393.8,251.2 -0.5,33.3 1.8,68.5 8,108.4 l -431.9,8.6 -127.2,-20.8"
         style="fill:#e2915a;fill-opacity:1;fill-rule:nonzero;stroke:none"
         id="path346" />
      <path
         d="m 26353.1,10830.2 c -50.1,-269.7 -398.1,-260.8 -548.5,-243.9 -42.3,4.7 -68.9,10.1 -68.9,10.1 -47.7,12.8 -74.4,87.9 -86.7,186.4 -24.6,194.8 6.4,480.8 39.3,553.9 49.6,110.1 142.9,229.1 493.3,143.2 350.5,-85.9 235.8,-304.2 171.5,-649.7"
         style="fill:#ffb27d;fill-opacity:1;fill-rule:nonzero;stroke:none"
         id="path348" />
      <path
         d="m 25195.8,9592.5 c 0,0 -216.5,-478.2 -210.2,-621.6 0,0 107.2,3.7 210.2,-27 169.3,-50.4 0,648.6 0,648.6"
         style="fill:#98baf4;fill-opacity:1;fill-rule:nonzero;stroke:none"
         id="path350" />
      <path
         d="m 25580.8,11593.4 c 0,0 154.2,11.9 336.2,91 147.6,64.2 333.9,-6.5 394.4,-38.4 -1.6,9.8 -5.5,23.1 -14.8,36.4 0,0 27.2,-19.3 31.2,-46.2 2.8,-2 4,-3.5 3.3,-3.9 0,0 30.8,5.6 50.6,-3.3 0,0 -13.9,2 -18.8,-6.9 -0.5,-1 -1.3,-1.8 -2.2,-2.5 230.3,-111.3 251.6,-475.3 177.4,-559.5 -89.1,-101.3 -223.8,-330.6 -223.8,-330.6 0,0 -11.3,55 5,144.2 16.2,89.1 -60.8,89.1 -158.1,129.7 -97.3,40.5 -16.2,154 -101.4,222.9 -85.1,68.9 -397.2,28.4 -393.1,81.1 -115.9,42.2 -85.9,274.1 -85.9,286"
         style="fill:#233862;fill-opacity:1;fill-rule:nonzero;stroke:none"
         id="path352" />
      <path
         d="m 26423.6,8696.7 c -91.4,-367 -1079.9,-556.7 -1304.6,-595.3 9.5,159.2 18.6,360.9 25.2,615.9 l 1279.4,-20.6"
         style="fill:#98baf4;fill-opacity:1;fill-rule:nonzero;stroke:none"
         id="path354" />
      <path
         d="m 26206.6,8577.4 c 9.5,0 219.8,31.4 257.5,50.2 37.6,18.9 209.9,263.7 97.1,326.5 -112.8,62.8 -415.7,-188.3 -415.7,-188.3 l 61.1,-188.4"
         style="fill:#ffb27d;fill-opacity:1;fill-rule:nonzero;stroke:none"
         id="path356" />
      <path
         d="m 24927.4,8504.7 c 0,0 813.4,-44.2 1359.3,72.7 0,0 13.8,157.7 -157.7,227.8 0,0 -850.9,180.3 -1055.3,130.1 -204.4,-50.2 -146.3,-430.6 -146.3,-430.6"
         style="fill:#b0d0ff;fill-opacity:1;fill-rule:nonzero;stroke:none"
         id="path358" />
      <path
         d="m 26795.5,9143.1 c -168.8,-203.6 -389.5,-369.8 -632.8,-408.7 h -0.1 c -2,3.1 -73.6,111.9 -60.2,271.7 6.2,74 30.7,158.9 88.6,249.4 17.8,27.8 33.7,60.3 47.8,96.4 132.9,339 113.1,992.4 113.1,992.4 0,0 564.2,-59.1 740,-310.3 107.7,-153.8 -29.6,-569.1 -296.4,-890.9"
         style="fill:#b0d0ff;fill-opacity:1;fill-rule:nonzero;stroke:none"
         id="path360" />
      <path
         d="m 25804.6,10586.3 c -42.3,4.7 -68.9,10.1 -68.9,10.1 -47.7,12.8 -74.4,87.9 -86.7,186.4 89.4,-22.1 130.4,-91.2 147.5,-120.6 7.7,-13.3 9.3,-43 8.1,-75.9"
         style="fill:#e2915a;fill-opacity:1;fill-rule:nonzero;stroke:none"
         id="path362" />
      <path
         d="m 25577.3,10433.8 c 0,0 -194.8,321.5 -43.3,335.5 151.5,14 212.4,-88.6 234.3,-126.2 21.9,-37.7 -5.7,-207.6 -5.7,-207.6 l -185.3,-1.7"
         style="fill:#ffb27d;fill-opacity:1;fill-rule:nonzero;stroke:none"
         id="path364" />
      <path
         d="m 26320,9016.9 c -6,-40.7 -18.2,-78.2 -33.2,-111.6 -47.6,-105.7 -124.1,-170.9 -124.1,-170.9 h -0.1 c -506,228.5 -608.4,1012.8 -625.6,1443.8 -6.9,173.2 0,289.4 0,289.4 228.3,75.6 292.5,-55.8 292.5,-55.8 0,0 269.5,-641 409.3,-1059.9 53.5,-160.3 88,-288.1 81.2,-335"
         style="fill:#b0d0ff;fill-opacity:1;fill-rule:nonzero;stroke:none"
         id="path366" />
      <path
         d="m 26795.5,9143.1 c -168.8,-203.6 -389.5,-369.8 -632.8,-408.7 h -0.1 c -506,228.5 -608.4,1012.8 -625.6,1443.8 0,0 239.5,-868.5 565.4,-1172.1 58.9,-54.9 120.7,-91.3 184.4,-100.8 0,0 411,116.1 497.2,225.5 6.1,7.9 9.9,11.8 11.5,12.3"
         style="fill:#98baf4;fill-opacity:1;fill-rule:nonzero;stroke:none"
         id="path368" />
      <path
         d="m 17578.4,6609.5 h -1571.9 l -472.9,1175.9 h 1569.5 l 475.3,-1175.9"
         style="fill:#2b478b;fill-opacity:1;fill-rule:nonzero;stroke:none"
         id="path370" />
      <path
         d="m 15988.1,6655.3 h 2075.6 v -45.8 h -2057.2 l -18.4,45.8"
         style="fill:#2b478b;fill-opacity:1;fill-rule:nonzero;stroke:none"
         id="path372" />
      <path
         d="m 16403.3,7197.4 c -11.9,41.4 12,74.9 53.4,74.9 41.3,0 84.4,-33.5 96.3,-74.9 11.8,-41.3 -12.1,-74.8 -53.4,-74.8 -41.4,0 -84.5,33.5 -96.3,74.8"
         style="fill:#ffffff;fill-opacity:1;fill-rule:nonzero;stroke:none"
         id="path374" />
      <path
         d="m 30329.9,2907.9 v -10 c 0,-16 -14.8,-29.1 -32.7,-29.1 H 1462.35 c -17.96,0 -32.75,13.1 -32.75,29.1 v 10 c 0,16 14.79,29.2 32.75,29.2 H 30297.2 c 17.9,0 32.7,-13.2 32.7,-29.2"
         style="fill:#2e3552;fill-opacity:1;fill-rule:nonzero;stroke:none"
         id="path376" />
    </g>
  </g>
</svg>
