<?xml version="1.0" encoding="UTF-8" standalone="no"?>
<!-- Created with Inkscape (http://www.inkscape.org/) -->

<svg
   version="1.1"
   id="svg2"
   width="3333.3333"
   height="3333.3333"
   viewBox="0 0 3333.3333 3333.3333"
   sodipodi:docname="Data_security_05.eps"
   xmlns:inkscape="http://www.inkscape.org/namespaces/inkscape"
   xmlns:sodipodi="http://sodipodi.sourceforge.net/DTD/sodipodi-0.dtd"
   xmlns="http://www.w3.org/2000/svg"
   xmlns:svg="http://www.w3.org/2000/svg">
  <defs
     id="defs6" />
  <sodipodi:namedview
     id="namedview4"
     pagecolor="#ffffff"
     bordercolor="#000000"
     borderopacity="0.25"
     inkscape:showpageshadow="2"
     inkscape:pageopacity="0.0"
     inkscape:pagecheckerboard="0"
     inkscape:deskcolor="#d1d1d1" />
  <g
     id="g8"
     inkscape:groupmode="layer"
     inkscape:label="ink_ext_XXXXXX"
     transform="matrix(1.3333333,0,0,-1.3333333,0,3333.3333)">
    <g
       id="g10"
       transform="scale(0.1)">
      <path
         d="M 25000,0 H 0 V 25000 H 25000 V 0"
         style="fill:#ffffff;fill-opacity:1;fill-rule:nonzero;stroke:none"
         id="path12" />
      <path
         d="M 19639.8,5551.5 H 5788.12 V 19349.8 H 19639.8 V 5551.5"
         style="fill:#aae0ff;fill-opacity:1;fill-rule:nonzero;stroke:none"
         id="path14" />
      <path
         d="M 1676.24,2440.6 H 23845.3 c 67.5,0 122.3,54.8 122.3,122.4 v 0 c 0,67.6 -54.8,122.4 -122.3,122.4 H 1676.24 c -67.6,0 -122.4,-54.8 -122.4,-122.4 v 0 c 0,-67.6 54.8,-122.4 122.4,-122.4"
         style="fill:#2d5b98;fill-opacity:1;fill-rule:nonzero;stroke:none"
         id="path16" />
      <path
         d="m 7650.05,3655.3 v 0 c -684.14,0 -1238.75,554.6 -1238.75,1238.8 V 6582.8 H 8888.81 V 4894.1 c 0,-684.2 -554.61,-1238.8 -1238.76,-1238.8"
         style="fill:#5896fa;fill-opacity:1;fill-rule:nonzero;stroke:none"
         id="path18" />
      <path
         d="M 6411.3,2685.4 H 6274 v 2621.2 h 137.3 V 2685.4"
         style="fill:#0e0e0e;fill-opacity:1;fill-rule:nonzero;stroke:none"
         id="path20" />
      <path
         d="m 9026.11,2685.4 h -137.3 v 2621.2 h 137.3 V 2685.4"
         style="fill:#0e0e0e;fill-opacity:1;fill-rule:nonzero;stroke:none"
         id="path22" />
      <path
         d="m 7975.44,2685.4 h -137.3 v 2621.2 h 137.3 V 2685.4"
         style="fill:#0e0e0e;fill-opacity:1;fill-rule:nonzero;stroke:none"
         id="path24" />
      <path
         d="m 6274,3518 v 137.3 H 8895.18 V 3518 H 6274"
         style="fill:#0e0e0e;fill-opacity:1;fill-rule:nonzero;stroke:none"
         id="path26" />
      <path
         d="m 9579.32,9372.8 c 149.52,-215.4 -151.43,-401 -198.29,-699.5 -46.86,-298.4 295.04,-466.4 -67.57,-857.2 -223.34,-240.7 -411.85,79 -593.38,-289.9 -181.53,-368.9 -38.49,-431.1 -242.54,-563.8 -355.72,-231.4 -899.93,280 -716.9,648.5 183.03,368.5 553.26,335.5 381.97,638.7 -171.29,303.2 -235.01,433.8 60.37,589.6 365.59,192.8 687.75,15.7 717.16,297.8 29.41,282.1 461.41,520.6 659.18,235.8"
         style="fill:#ffca59;fill-opacity:1;fill-rule:nonzero;stroke:none"
         id="path28" />
      <path
         d="m 8016.53,6599.7 -61.54,12.2 C 8243.23,8068.8 9198.82,9089 9208.44,9099.1 l 45.5,-43.2 c -9.5,-10 -952.8,-1017.7 -1237.41,-2456.2"
         style="fill:#0e0e0e;fill-opacity:1;fill-rule:nonzero;stroke:none"
         id="path30" />
      <path
         d="m 4788.16,9911 c -154.56,-315 281.01,-500.1 403.04,-885.7 122.03,-385.5 -327.33,-521.7 231.12,-966 343.95,-273.7 415.94,-102.6 542.39,-714.7 111.33,-538.9 520.8,-26.1 827.01,-342.4 395.1,-408.1 1012.49,487.6 696.19,938.4 -316.31,450.8 -685.43,334.3 -519.73,769.9 165.71,435.7 -31.93,763.9 -454.14,910.7 -522.57,181.6 -710.52,-257 -806.17,110.4 -95.65,367.4 -715.29,596.1 -919.71,179.4"
         style="fill:#ed5a24;fill-opacity:1;fill-rule:nonzero;stroke:none"
         id="path32" />
      <path
         d="M 7413.88,6555.7 C 6747.62,8403 5297.02,9545.8 5282.46,9557.1 l 51.53,66.4 C 5348.75,9612 6818.44,8454.2 7492.87,6584.2 l -78.99,-28.5"
         style="fill:#0e0e0e;fill-opacity:1;fill-rule:nonzero;stroke:none"
         id="path34" />
      <path
         d="m 14527.4,16967.8 c 0,-2926 -2372,-5298 -5298.03,-5298 -2926.04,0 -5298.06,2372 -5298.06,5298 0,2926.1 2372.02,5298.1 5298.06,5298.1 2926.03,0 5298.03,-2372 5298.03,-5298.1 z"
         style="fill:none;stroke:#2e77e6;stroke-width:87.306;stroke-linecap:butt;stroke-linejoin:miter;stroke-miterlimit:10;stroke-dasharray:130.959, 130.959;stroke-dashoffset:0;stroke-opacity:1"
         id="path36" />
      <path
         d="m 10570.8,17315.6 c 5.6,41.3 9.5,83.2 9.5,126.1 0,515.7 -418.1,933.7 -933.77,933.7 -386.87,0 -718.78,-235.2 -860.45,-570.5 -115.29,102.7 -266.76,165.5 -433.28,165.5 -360.36,0 -652.49,-292.1 -652.49,-652.4 h -121.76 c -346.5,0 -630,-283.5 -630,-630 v 0 c 0,-346.5 283.5,-630 630,-630 h 2945.75 c 346.5,0 630,283.5 630,630 v 0 c 0,330.8 -258.6,603.5 -583.5,627.6"
         style="fill:#ffffff;fill-opacity:1;fill-rule:nonzero;stroke:none"
         id="path38" />
      <path
         d="M 11150.2,10462.4 H 7206.26 c -132.73,0 -240.33,107.6 -240.33,240.3 v 3308.8 c 0,132.7 107.6,240.3 240.33,240.3 h 3943.94 c 132.7,0 240.3,-107.6 240.3,-240.3 v -3308.8 c 0,-132.7 -107.6,-240.3 -240.3,-240.3"
         style="fill:#5896fa;fill-opacity:1;fill-rule:nonzero;stroke:none"
         id="path40" />
      <path
         d="M 10517.8,11963.7 H 7850.44 c -87.28,0 -158.69,71.5 -158.69,158.7 v 0 c 0,87.3 71.41,158.7 158.69,158.7 h 2667.36 c 87.2,0 158.7,-71.4 158.7,-158.7 v 0 c 0,-87.2 -71.5,-158.7 -158.7,-158.7"
         style="fill:#ffffff;fill-opacity:1;fill-rule:nonzero;stroke:none"
         id="path42" />
      <path
         d="M 10517.8,11452.6 H 7850.44 c -87.28,0 -158.69,71.4 -158.69,158.7 v 0 c 0,87.3 71.41,158.7 158.69,158.7 h 2667.36 c 87.2,0 158.7,-71.4 158.7,-158.7 v 0 c 0,-87.3 -71.5,-158.7 -158.7,-158.7"
         style="fill:#ffffff;fill-opacity:1;fill-rule:nonzero;stroke:none"
         id="path44" />
      <path
         d="m 8348.51,11597.2 c 0,-30.8 -25.02,-55.8 -55.88,-55.8 -30.86,0 -55.87,25 -55.87,55.8 0,30.9 25.01,55.9 55.87,55.9 30.86,0 55.88,-25 55.88,-55.9"
         style="fill:#80b2ff;fill-opacity:1;fill-rule:nonzero;stroke:none"
         id="path46" />
      <path
         d="m 8540.07,11597.2 c 0,-30.8 -25.02,-55.8 -55.88,-55.8 -30.86,0 -55.87,25 -55.87,55.8 0,30.9 25.01,55.9 55.87,55.9 30.86,0 55.88,-25 55.88,-55.9"
         style="fill:#80b2ff;fill-opacity:1;fill-rule:nonzero;stroke:none"
         id="path48" />
      <path
         d="m 8731.63,11597.2 c 0,-30.8 -25.02,-55.8 -55.87,-55.8 -30.86,0 -55.88,25 -55.88,55.8 0,30.9 25.02,55.9 55.88,55.9 30.85,0 55.87,-25 55.87,-55.9"
         style="fill:#80b2ff;fill-opacity:1;fill-rule:nonzero;stroke:none"
         id="path50" />
      <path
         d="m 8923.19,11597.2 c 0,-30.8 -25.02,-55.8 -55.87,-55.8 -30.86,0 -55.87,25 -55.87,55.8 0,30.9 25.01,55.9 55.87,55.9 30.85,0 55.87,-25 55.87,-55.9"
         style="fill:#80b2ff;fill-opacity:1;fill-rule:nonzero;stroke:none"
         id="path52" />
      <path
         d="m 9114.76,11597.2 c 0,-30.8 -25.02,-55.8 -55.88,-55.8 -30.86,0 -55.87,25 -55.87,55.8 0,30.9 25.01,55.9 55.87,55.9 30.86,0 55.88,-25 55.88,-55.9"
         style="fill:#80b2ff;fill-opacity:1;fill-rule:nonzero;stroke:none"
         id="path54" />
      <path
         d="m 9306.32,11597.2 c 0,-30.8 -25.02,-55.8 -55.88,-55.8 -30.86,0 -55.87,25 -55.87,55.8 0,30.9 25.01,55.9 55.87,55.9 30.86,0 55.88,-25 55.88,-55.9"
         style="fill:#80b2ff;fill-opacity:1;fill-rule:nonzero;stroke:none"
         id="path56" />
      <path
         d="m 9497.88,11597.2 c 0,-30.8 -25.02,-55.8 -55.87,-55.8 -30.86,0 -55.88,25 -55.88,55.8 0,30.9 25.02,55.9 55.88,55.9 30.85,0 55.87,-25 55.87,-55.9"
         style="fill:#80b2ff;fill-opacity:1;fill-rule:nonzero;stroke:none"
         id="path58" />
      <path
         d="m 9689.44,11597.2 c 0,-30.8 -25.02,-55.8 -55.87,-55.8 -30.86,0 -55.87,25 -55.87,55.8 0,30.9 25.01,55.9 55.87,55.9 30.85,0 55.87,-25 55.87,-55.9"
         style="fill:#80b2ff;fill-opacity:1;fill-rule:nonzero;stroke:none"
         id="path60" />
      <path
         d="m 9881.01,11597.2 c 0,-30.8 -25.02,-55.8 -55.88,-55.8 -30.86,0 -55.87,25 -55.87,55.8 0,30.9 25.01,55.9 55.87,55.9 30.86,0 55.88,-25 55.88,-55.9"
         style="fill:#80b2ff;fill-opacity:1;fill-rule:nonzero;stroke:none"
         id="path62" />
      <path
         d="m 9798.15,13338.4 c 0,-338.7 -274.52,-613.2 -613.15,-613.2 -338.63,0 -613.15,274.5 -613.15,613.2 0,338.6 274.52,613.1 613.15,613.1 338.63,0 613.15,-274.5 613.15,-613.1"
         style="fill:#ffffff;fill-opacity:1;fill-rule:nonzero;stroke:none"
         id="path64" />
      <path
         d="m 9185.88,13363 c 59.85,0 115.13,29.2 150.43,73.7 26.08,32.3 41.44,73.7 41.44,119.8 0,105.9 -85.96,193.4 -191.87,193.4 -107.44,0 -193.41,-87.5 -193.41,-193.4 0,-46.1 15.32,-87.5 41.45,-119.8 35.3,-44.5 90.54,-73.7 151.96,-73.7"
         style="fill:#005cea;fill-opacity:1;fill-rule:nonzero;stroke:none"
         id="path66" />
      <path
         d="m 9525.73,13018.4 c 0,-122.1 -681.59,-122.1 -681.59,0 l 0.22,142.2 c 26.93,194.5 625.98,202.7 681.5,0 l -0.13,-142.2"
         style="fill:#005cea;fill-opacity:1;fill-rule:nonzero;stroke:none"
         id="path68" />
      <path
         d="m 7930.92,11583.9 v -32.5 c 0,-5.9 -5.01,-10 -10.85,-10 -5.84,0 -9.99,4.1 -9.99,10 v 32.5 c -5.85,3.3 -10.02,9.2 -10.02,16.7 0,10.8 9.18,20 20.01,20 10.85,0 20.01,-9.2 20.01,-20 0,-7.5 -4.18,-13.4 -9.16,-16.7 z m -50.81,65.2 c 0,21.6 13.32,41.2 40.18,41.2 26.85,0 40.62,-18.4 40.62,-41.2 v -8.5 h -80.8 z m 102.62,-8.5 v 8.5 c 0,34.4 -28,62.4 -62.44,62.4 -34.44,0 -62.44,-28 -62.44,-62.4 v -8.5 h -9.49 V 11528 c 0,-19.4 144.25,-19.4 144.25,0 v 112.6 h -9.88"
         style="fill:#5896fa;fill-opacity:1;fill-rule:nonzero;stroke:none"
         id="path70" />
      <path
         d="m 7920.44,12134 c 12.63,0 24.3,6.1 31.75,15.5 5.5,6.8 8.74,15.5 8.74,25.3 0,22.3 -18.14,40.8 -40.49,40.8 -22.67,0 -40.81,-18.5 -40.81,-40.8 0,-9.8 3.24,-18.5 8.75,-25.3 7.45,-9.4 19.1,-15.5 32.06,-15.5"
         style="fill:#5896fa;fill-opacity:1;fill-rule:nonzero;stroke:none"
         id="path72" />
      <path
         d="m 7992.16,12061.2 c 0,-25.7 -144.57,-25.7 -144.57,0 l 0.78,30 c 5.69,41.1 132.1,42.8 143.82,0 l -0.03,-30"
         style="fill:#5896fa;fill-opacity:1;fill-rule:nonzero;stroke:none"
         id="path74" />
      <path
         d="m 8854.74,12075.9 h -584.53 c -25.61,0 -46.57,20.9 -46.57,46.5 v 0 c 0,25.7 20.96,46.6 46.57,46.6 h 584.53 c 25.61,0 46.57,-20.9 46.57,-46.6 v 0 c 0,-25.6 -20.96,-46.5 -46.57,-46.5"
         style="fill:#80b2ff;fill-opacity:1;fill-rule:nonzero;stroke:none"
         id="path76" />
      <path
         d="m 9625.68,12075.9 h -584.53 c -25.61,0 -46.57,20.9 -46.57,46.5 v 0 c 0,25.7 20.96,46.6 46.57,46.6 h 584.53 c 25.61,0 46.57,-20.9 46.57,-46.6 v 0 c 0,-25.6 -20.96,-46.5 -46.57,-46.5"
         style="fill:#80b2ff;fill-opacity:1;fill-rule:nonzero;stroke:none"
         id="path78" />
      <path
         d="M 9379.61,10957.4 H 8849.9 c -75.1,0 -135.97,60.9 -135.97,135.9 v 0 c 0,75.1 60.87,136 135.97,136 h 529.71 c 75.09,0 135.97,-60.9 135.97,-136 v 0 c 0,-75 -60.88,-135.9 -135.97,-135.9"
         style="fill:#1251b3;fill-opacity:1;fill-rule:nonzero;stroke:none"
         id="path80" />
      <path
         d="m 2446.49,16493 v 0 c 0.02,4.4 0.03,6.3 0.03,6.7 -0.01,-0.8 -0.03,-6.7 -0.03,-6.7"
         style="fill:#d9ffff;fill-opacity:1;fill-rule:nonzero;stroke:none"
         id="path82" />
      <path
         d="m 2446.49,16493 v 0 c 0.02,4.4 0.03,6.3 0.03,6.7 -0.01,-0.8 -0.03,-6.7 -0.03,-6.7"
         style="fill:#d9ffff;fill-opacity:1;fill-rule:nonzero;stroke:none"
         id="path84" />
      <path
         d="m 5053.84,16481.3 c 0,0 0.02,6 0.03,6.8 0,-0.5 -0.01,-2.4 -0.03,-6.8 v 0"
         style="fill:#d9ffff;fill-opacity:1;fill-rule:nonzero;stroke:none"
         id="path86" />
      <path
         d="m 5053.84,16481.3 c 0,0 0.02,6 0.03,6.8 0,-0.5 -0.01,-2.4 -0.03,-6.8 v 0"
         style="fill:#d9ffff;fill-opacity:1;fill-rule:nonzero;stroke:none"
         id="path88" />
      <path
         d="m 3755.51,17197.4 c -303.84,-325.5 -788.67,-592.2 -1307.49,-705.8 -0.15,-34.7 -1.01,-226.7 -4.96,-1111.5 -5.28,-1180.4 1118.07,-1757.2 1292.47,-1845.7 168.99,77.8 1306.52,653.7 1311.79,1834 3.95,884.9 4.81,1076.9 4.97,1111.5 -517.77,118.3 -995.86,389.3 -1296.78,717.5"
         style="fill:#ffffff;fill-opacity:1;fill-rule:nonzero;stroke:none"
         id="path90" />
      <path
         d="m 3752.4,16984.1 c -297.54,-273 -709.75,-487.5 -1163.03,-604.4 l -4.47,-1000.1 c -2.05,-457.6 179.75,-871.6 540.35,-1230.5 236.94,-235.8 486.06,-382.1 612.46,-447.8 5.44,2.7 11.41,5.9 17.28,8.9 v 3271.6 c -0.86,0.7 -1.76,1.5 -2.59,2.3"
         style="fill:#296acc;fill-opacity:1;fill-rule:nonzero;stroke:none"
         id="path92" />
      <path
         d="m 3754.99,16981.8 v -3271.6 c 131.45,68.4 370.36,209.7 599.17,433.4 363.78,355.7 549.28,768 551.31,1225.6 l 4.48,1000.1 c -450.93,120.6 -860.09,338 -1154.96,612.5"
         style="fill:#2e77e6;fill-opacity:1;fill-rule:nonzero;stroke:none"
         id="path94" />
      <path
         d="m 3808.27,15128.8 v -219.6 c 0,-29.2 -23.79,-53.5 -53.04,-53.5 -29.73,0 -53.53,24.3 -53.53,53.5 v 220.1 c -45.11,20.4 -76.83,66 -76.83,118.5 0,71.9 58.48,129.9 130.36,129.9 71.87,0 129.88,-58 129.88,-129.9 0,-53 -31.24,-98.6 -76.84,-119 z m -579.96,411.5 v -774.8 c 0,-86.3 1053.36,-86.3 1053.36,0 v 774.8 H 3228.31"
         style="fill:#ffffff;fill-opacity:1;fill-rule:nonzero;stroke:none"
         id="path96" />
      <path
         d="m 4189.47,15595.5 h -106.63 v 52.2 c 0,180.7 -147.07,327.8 -327.8,327.8 -180.77,0 -327.83,-147.1 -327.83,-327.8 v -52.2 h -106.63 v 52.2 c 0,239.5 194.89,434.4 434.46,434.4 239.53,0 434.43,-194.9 434.43,-434.4 v -52.2"
         style="fill:#ffffff;fill-opacity:1;fill-rule:nonzero;stroke:none"
         id="path98" />
      <path
         d="M 11552.2,21199.2 H 9649.44 v 2375.1 h 1902.76 v -2375.1"
         style="fill:#296acc;fill-opacity:1;fill-rule:nonzero;stroke:none"
         id="path100" />
      <path
         d="M 11799,20953.9 H 9896.2 V 23329 H 11799 v -2375.1"
         style="fill:#ffffff;fill-opacity:1;fill-rule:nonzero;stroke:none"
         id="path102" />
      <path
         d="M 11799,20953.9 H 9896.2 V 23329 H 11799 Z"
         style="fill:none;stroke:#5896fa;stroke-width:63.4057;stroke-linecap:butt;stroke-linejoin:miter;stroke-miterlimit:10;stroke-dasharray:none;stroke-opacity:1"
         id="path104" />
      <path
         d="m 12112.3,20713.1 h -1902.7 v 2375.1 h 1902.7 v -2375.1"
         style="fill:#ffffff;fill-opacity:1;fill-rule:nonzero;stroke:none"
         id="path106" />
      <path
         d="m 12112.3,20713.1 h -1902.7 v 2375.1 h 1902.7 z"
         style="fill:none;stroke:#5896fa;stroke-width:63.4057;stroke-linecap:butt;stroke-linejoin:miter;stroke-miterlimit:10;stroke-dasharray:none;stroke-opacity:1"
         id="path108" />
      <path
         d="m 12340.3,20467.9 h -1902.7 v 2375 h 1902.7 v -2375"
         style="fill:#5896fa;fill-opacity:1;fill-rule:nonzero;stroke:none"
         id="path110" />
      <path
         d="m 12044.3,22298.5 h -984.2 v 154.5 h 984.2 v -154.5"
         style="fill:#005cea;fill-opacity:1;fill-rule:nonzero;stroke:none"
         id="path112" />
      <path
         d="M 12044.3,21935.6 H 10769 v 154.5 h 1275.3 v -154.5"
         style="fill:#005cea;fill-opacity:1;fill-rule:nonzero;stroke:none"
         id="path114" />
      <path
         d="M 12044.3,21572.7 H 10769 v 154.5 h 1275.3 v -154.5"
         style="fill:#005cea;fill-opacity:1;fill-rule:nonzero;stroke:none"
         id="path116" />
      <path
         d="M 12044.3,21209.8 H 10769 v 154.5 h 1275.3 v -154.5"
         style="fill:#005cea;fill-opacity:1;fill-rule:nonzero;stroke:none"
         id="path118" />
      <path
         d="M 12044.3,20846.9 H 10769 v 154.4 h 1275.3 v -154.4"
         style="fill:#005cea;fill-opacity:1;fill-rule:nonzero;stroke:none"
         id="path120" />
      <path
         d="m 6147.14,20989.1 c 0,-371.2 -300.89,-672.1 -672.05,-672.1 -371.16,0 -672.05,300.9 -672.05,672.1 0,371.1 300.89,672 672.05,672 371.16,0 672.05,-300.9 672.05,-672"
         style="fill:#ffffff;fill-opacity:1;fill-rule:nonzero;stroke:none"
         id="path122" />
      <path
         d="m 5128.33,20413.6 c -318.14,191.8 -420.36,604.6 -228.51,922.7 191.55,317.7 604.3,419.9 922.44,228 317.64,-191.5 419.84,-604.3 228.3,-921.9 -191.85,-318.1 -604.59,-420.4 -922.23,-228.8 z m 1407.09,-63.6 c 87.14,144.5 141.62,300.7 164.69,458.3 l 50.07,-7.4 98.85,-14.5 1.28,-0.1 c 26.67,180.3 17.6,362.7 -25.97,536.9 l -147.06,-36.4 c -39.46,157.7 -108.97,307.9 -208.05,440.3 l 121.9,90.6 c -104.29,141.6 -238.16,265.3 -397.97,361.7 l -78.52,-130.2 c -145.02,87.4 -300.67,141.6 -458.27,164.7 l 21.97,150.2 c -180.32,26.7 -362.99,17.1 -536.93,-26 l 36.42,-147.1 c -157.65,-39.4 -307.85,-108.9 -440.25,-208 l -90.6,121.9 c -141.58,-104.3 -265.36,-238.2 -361.74,-398 l 130.23,-78.5 c -87.45,-145 -141.64,-300.7 -164.71,-458.3 l -106.25,15.7 -43.45,6 -0.49,0.3 c -26.68,-180.3 -17.11,-363 25.96,-536.9 l 147.08,36.4 c 39.45,-157.7 109.44,-308.2 208.52,-440.5 l -121.9,-90.7 c 104.3,-141.5 237.68,-265 397.48,-361.4 l 78.53,130.2 c 145.01,-87.4 301.16,-141.9 458.76,-165 l -17.25,-116.7 -4.72,-33.5 c 180.32,-26.6 362.49,-16.8 536.43,26.3 l -36.4,147.1 c 157.64,39.4 308.14,109.4 441.02,208.2 l 90.6,-121.9 c 141.1,104.6 264.57,238 360.95,397.8 l -130.21,78.5"
         style="fill:#005cea;fill-opacity:1;fill-rule:nonzero;stroke:none"
         id="path124" />
      <path
         d="m 3672.07,19784.4 c -163.12,-108 -382.5,-63.3 -490.44,99.8 -107.78,162.9 -63.11,382.3 100.01,490.2 162.87,107.8 382.24,63.1 490.01,-99.7 107.94,-163.2 63.29,-382.5 -99.58,-490.3 z m 348.19,654.8 c -49.03,74.1 -110.99,135.2 -180.72,181.8 l 14.8,22.2 29.25,43.7 0.34,0.6 c -79.73,53.4 -168.51,90.3 -261.22,109 l -15.9,-78.2 c -83.89,16.9 -171.02,17.8 -256.37,0.6 l -15.54,78.4 c -90.9,-17.6 -180.01,-53.3 -261.95,-107.5 l 44.18,-66.8 c -74.36,-49.2 -135.29,-111 -181.88,-180.7 l -66.46,44.4 c -53.44,-79.7 -90.16,-168.8 -108.98,-261.2 l 78.17,-15.9 c -16.86,-83.9 -17.75,-171.1 -0.54,-256.4 l -78.45,-15.5 c 17.61,-90.9 53.3,-180.1 107.52,-262 l 66.77,44.2 c 49.2,-74.4 110.97,-135.3 180.71,-181.9 l -31.45,-47 -12.68,-19.3 -0.25,-0.2 c 79.72,-53.4 168.75,-90.1 261.21,-108.9 l 15.91,78.1 c 83.88,-16.8 171.27,-17.5 256.61,-0.3 l 15.55,-78.5 c 90.9,17.6 179.75,53.1 261.7,107.4 l -44.19,66.7 c 74.36,49.2 135.55,111.2 182.14,180.9 l 51.6,-34.6 14.85,-9.8 c 53.44,79.8 89.91,168.6 108.73,261.1 l -78.17,15.9 c 16.86,83.9 17.58,171.3 0.63,256.8 l 78.44,15.5 c -17.85,90.7 -53.38,179.6 -107.6,261.5 l -66.76,-44.1"
         style="fill:#1251b3;fill-opacity:1;fill-rule:nonzero;stroke:none"
         id="path126" />
      <path
         d="m 15011.5,19073.5 h -1633.8 c -34.4,0 -62.3,27.9 -62.3,62.3 v 927 c 0,34.4 27.9,62.2 62.3,62.2 h 1633.8 c 34.4,0 62.3,-27.8 62.3,-62.2 v -927 c 0,-34.4 -27.9,-62.3 -62.3,-62.3"
         style="fill:#005cea;fill-opacity:1;fill-rule:nonzero;stroke:none"
         id="path128" />
      <path
         d="m 15073.8,19745 h -1758.4 v 181.4 h 1758.4 V 19745"
         style="fill:#5896fa;fill-opacity:1;fill-rule:nonzero;stroke:none"
         id="path130" />
      <path
         d="m 13718.2,19275.2 h -258.5 c -16.5,0 -29.8,-13.3 -29.8,-29.7 v 0 c 0,-16.5 13.3,-29.8 29.8,-29.8 h 258.5 c 16.4,0 29.8,13.3 29.8,29.8 v 0 c 0,16.4 -13.4,29.7 -29.8,29.7"
         style="fill:#d1f5ff;fill-opacity:1;fill-rule:nonzero;stroke:none"
         id="path132" />
      <path
         d="m 14115.8,19275.2 h -258.6 c -16.4,0 -29.7,-13.3 -29.7,-29.7 v 0 c 0,-16.5 13.3,-29.8 29.7,-29.8 h 258.6 c 16.4,0 29.7,13.3 29.7,29.8 v 0 c 0,16.4 -13.3,29.7 -29.7,29.7"
         style="fill:#d1f5ff;fill-opacity:1;fill-rule:nonzero;stroke:none"
         id="path134" />
      <path
         d="m 14513.4,19275.2 h -258.6 c -16.4,0 -29.7,-13.3 -29.7,-29.7 v 0 c 0,-16.5 13.3,-29.8 29.7,-29.8 h 258.6 c 16.4,0 29.7,13.3 29.7,29.8 v 0 c 0,16.4 -13.3,29.7 -29.7,29.7"
         style="fill:#d1f5ff;fill-opacity:1;fill-rule:nonzero;stroke:none"
         id="path136" />
      <path
         d="m 14910.9,19275.2 h -258.5 c -16.4,0 -29.8,-13.3 -29.8,-29.7 v 0 c 0,-16.5 13.4,-29.8 29.8,-29.8 h 258.5 c 16.5,0 29.8,13.3 29.8,29.8 v 0 c 0,16.4 -13.3,29.7 -29.8,29.7"
         style="fill:#d1f5ff;fill-opacity:1;fill-rule:nonzero;stroke:none"
         id="path138" />
      <path
         d="m 13447.8,20071.7 v 0 c -18.2,0 -32.9,-14.7 -32.9,-32.9 v -11.5 c 0,-18.1 14.7,-32.9 32.9,-32.9 v 0 c 18.1,0 32.8,14.8 32.8,32.9 v 11.5 c 0,18.2 -14.7,32.9 -32.8,32.9"
         style="fill:#d1f5ff;fill-opacity:1;fill-rule:nonzero;stroke:none"
         id="path140" />
      <path
         d="m 13518.5,20033.1 v 0 c 0,-21.4 17.3,-38.7 38.6,-38.7 h 136.9 c 21.3,0 38.6,17.3 38.6,38.7 v 0 c 0,21.3 -17.3,38.6 -38.6,38.6 h -136.9 c -21.3,0 -38.6,-17.3 -38.6,-38.6"
         style="fill:#d1f5ff;fill-opacity:1;fill-rule:nonzero;stroke:none"
         id="path142" />
      <path
         d="m 13500.6,19647.4 h 176.7 c 28.3,0 51.3,-23 51.3,-51.3 v -152.4 c 0,-28.3 -23,-51.3 -51.3,-51.3 h -176.7 c -28.4,0 -51.3,23 -51.3,51.3 v 152.4 c 0,28.3 22.9,51.3 51.3,51.3"
         style="fill:#5896fa;fill-opacity:1;fill-rule:nonzero;stroke:none"
         id="path144" />
      <path
         d="m 14364.4,16394.9 v 120.1 c 0,54.6 -44.2,98.8 -98.7,98.8 h -1051.4 c -54.5,0 -98.8,-44.2 -98.8,-98.8 v -2123.3 h 2719.6 v 2003.2 h -1470.7"
         style="fill:#1251b3;fill-opacity:1;fill-rule:nonzero;stroke:none"
         id="path146" />
      <path
         d="m 15948.2,16321.9 h -2666.8 l -165.8,-1930.2 h 2706.2 l 126.4,1930.2"
         style="fill:#ffffff;fill-opacity:1;fill-rule:nonzero;stroke:none"
         id="path148" />
      <path
         d="m 15835.1,14391.7 h -2719.5 l 288.5,1906.2 c 8.5,55.8 56.4,97 112.8,97 h 2488.8 c 69.8,0 123.2,-62.1 112.8,-131.1 l -283.4,-1872.1"
         style="fill:#3383ff;fill-opacity:1;fill-rule:nonzero;stroke:none"
         id="path150" />
      <path
         d="m 16742.9,16321.9 c 0,-344.1 -278.9,-623.1 -623.1,-623.1 -344.1,0 -623.1,279 -623.1,623.1 0,344.2 279,623.2 623.1,623.2 344.2,0 623.1,-279 623.1,-623.2"
         style="fill:#005cea;fill-opacity:1;fill-rule:nonzero;stroke:none"
         id="path152" />
      <path
         d="m 16119.8,16922.3 c -331.1,0 -600.3,-269.3 -600.3,-600.3 0,-331.1 269.2,-600.4 600.3,-600.4 331.1,0 600.3,269.3 600.3,600.4 0,331 -269.2,600.3 -600.3,600.3 z m 0,-1246.3 c -356.2,0 -646,289.8 -646,646 0,356.1 289.8,645.8 646,645.8 356.2,0 646,-289.7 646,-645.8 0,-356.2 -289.8,-646 -646,-646"
         style="fill:#ffffff;fill-opacity:1;fill-rule:nonzero;stroke:none"
         id="path154" />
      <path
         d="m 16150.2,16200.4 v -125.1 c 0,-16.6 -13.6,-30.5 -30.2,-30.5 -17,0 -30.5,13.9 -30.5,30.5 v 125.4 c -25.7,11.5 -43.8,37.5 -43.8,67.4 0,41 33.3,74 74.3,74 40.9,0 73.9,-33 73.9,-74 0,-30.2 -17.8,-56.2 -43.7,-67.7 z m -330.3,234.3 v -441.2 c 0,-49.1 599.8,-49.1 599.8,0 v 441.2 h -599.8"
         style="fill:#ffffff;fill-opacity:1;fill-rule:nonzero;stroke:none"
         id="path156" />
      <path
         d="m 16367.2,16466.1 h -60.7 v 29.7 c 0,103 -83.7,186.7 -186.7,186.7 -102.9,0 -186.7,-83.7 -186.7,-186.7 v -29.7 h -60.7 v 29.7 c 0,136.5 111,247.5 247.4,247.5 136.5,0 247.4,-111 247.4,-247.5 v -29.7"
         style="fill:#ffffff;fill-opacity:1;fill-rule:nonzero;stroke:none"
         id="path158" />
      <path
         d="m 14194.6,21536.8 c 0,-131.8 -106.8,-238.6 -238.5,-238.6 -131.8,0 -238.6,106.8 -238.6,238.6 0,131.7 106.8,238.5 238.6,238.5 131.7,0 238.5,-106.8 238.5,-238.5"
         style="fill:#aae0ff;fill-opacity:1;fill-rule:nonzero;stroke:none"
         id="path160" />
      <path
         d="m 7930.3,20646.6 c 0,-131.8 -106.8,-238.6 -238.55,-238.6 -131.75,0 -238.56,106.8 -238.56,238.6 0,131.7 106.81,238.5 238.56,238.5 131.75,0 238.55,-106.8 238.55,-238.5"
         style="fill:#aae0ff;fill-opacity:1;fill-rule:nonzero;stroke:none"
         id="path162" />
      <path
         d="m 15753.7,17470.3 c 0,-68.9 -55.9,-124.7 -124.8,-124.7 -68.9,0 -124.8,55.8 -124.8,124.7 0,69 55.9,124.8 124.8,124.8 68.9,0 124.8,-55.8 124.8,-124.8"
         style="fill:#ffffff;fill-opacity:1;fill-rule:nonzero;stroke:none"
         id="path164" />
      <path
         d="m 2692.63,17236.3 c 0,-68.9 -55.87,-124.8 -124.8,-124.8 -68.92,0 -124.79,55.9 -124.79,124.8 0,68.9 55.87,124.8 124.79,124.8 68.93,0 124.8,-55.9 124.8,-124.8"
         style="fill:#aae0ff;fill-opacity:1;fill-rule:nonzero;stroke:none"
         id="path166" />
      <path
         d="m 4758.77,12688.3 c 0,-131.7 -106.8,-238.5 -238.55,-238.5 -131.75,0 -238.55,106.8 -238.55,238.5 0,131.8 106.8,238.6 238.55,238.6 131.75,0 238.55,-106.8 238.55,-238.6"
         style="fill:#aae0ff;fill-opacity:1;fill-rule:nonzero;stroke:none"
         id="path168" />
      <path
         d="m 8348.38,23014.8 v 0 c -22.83,0 -41.34,18.5 -41.34,41.3 v 442.5 c 0,22.9 18.51,41.4 41.34,41.4 v 0 c 22.83,0 41.33,-18.5 41.33,-41.4 v -442.5 c 0,-22.8 -18.5,-41.3 -41.33,-41.3"
         style="fill:#aae0ff;fill-opacity:1;fill-rule:nonzero;stroke:none"
         id="path170" />
      <path
         d="m 8085.78,23277.4 v 0 c 0,22.8 18.51,41.3 41.33,41.3 h 442.53 c 22.83,0 41.33,-18.5 41.33,-41.3 v 0 c 0,-22.8 -18.5,-41.3 -41.33,-41.3 h -442.53 c -22.82,0 -41.33,18.5 -41.33,41.3"
         style="fill:#aae0ff;fill-opacity:1;fill-rule:nonzero;stroke:none"
         id="path172" />
      <path
         d="m 13052.9,17332.5 v 0 c -22.9,0 -41.4,18.6 -41.4,41.4 v 442.5 c 0,22.8 18.5,41.3 41.4,41.3 v 0 c 22.8,0 41.3,-18.5 41.3,-41.3 v -442.5 c 0,-22.8 -18.5,-41.4 -41.3,-41.4"
         style="fill:#ffffff;fill-opacity:1;fill-rule:nonzero;stroke:none"
         id="path174" />
      <path
         d="m 12790.3,17595.1 v 0 c 0,22.9 18.5,41.4 41.3,41.4 h 442.5 c 22.8,0 41.3,-18.5 41.3,-41.4 v 0 c 0,-22.8 -18.5,-41.3 -41.3,-41.3 h -442.5 c -22.8,0 -41.3,18.5 -41.3,41.3"
         style="fill:#ffffff;fill-opacity:1;fill-rule:nonzero;stroke:none"
         id="path176" />
      <path
         d="m 12602.9,11504 v 0 c -22.8,0 -41.3,18.5 -41.3,41.3 v 442.5 c 0,22.8 18.5,41.4 41.3,41.4 v 0 c 22.9,0 41.4,-18.6 41.4,-41.4 v -442.5 c 0,-22.8 -18.5,-41.3 -41.4,-41.3"
         style="fill:#ffffff;fill-opacity:1;fill-rule:nonzero;stroke:none"
         id="path178" />
      <path
         d="m 12340.3,11766.6 v 0 c 0,22.8 18.5,41.3 41.4,41.3 h 442.5 c 22.8,0 41.3,-18.5 41.3,-41.3 v 0 c 0,-22.9 -18.5,-41.4 -41.3,-41.4 h -442.5 c -22.9,0 -41.4,18.5 -41.4,41.4"
         style="fill:#ffffff;fill-opacity:1;fill-rule:nonzero;stroke:none"
         id="path180" />
      <path
         d="m 9052.08,14807.1 c 0,-73.1 -59.24,-132.3 -132.31,-132.3 -73.08,0 -132.32,59.2 -132.32,132.3 0,73 59.24,132.3 132.32,132.3 73.07,0 132.31,-59.3 132.31,-132.3 z"
         style="fill:none;stroke:#ffffff;stroke-width:42.2567;stroke-linecap:butt;stroke-linejoin:miter;stroke-miterlimit:10;stroke-dasharray:none;stroke-opacity:1"
         id="path182" />
      <path
         d="m 12171.7,2686.8 h -517.8 l -53.6,1125.8 h 624.9 l -53.5,-1125.8"
         style="fill:#0e0e0e;fill-opacity:1;fill-rule:nonzero;stroke:none"
         id="path184" />
      <path
         d="m 21170.4,2686.8 h -517.8 l -53.6,1125.8 h 624.9 l -53.5,-1125.8"
         style="fill:#0e0e0e;fill-opacity:1;fill-rule:nonzero;stroke:none"
         id="path186" />
      <path
         d="m 20719,5766.5 c -57.1,-177 -119.3,-358.7 -187.4,-545.1 h -8595.5 c 0,0 -1109.3,4515.1 0,5340.8 28.4,21.1 62.4,41.9 102.1,62.3 1494,767.6 7484,947.9 8700.1,-39.7 9.3,-7.4 17.9,-15 26.2,-22.6 448.1,-411.3 837.7,-2053.3 -45.5,-4795.7"
         style="fill:#ea7b00;fill-opacity:1;fill-rule:nonzero;stroke:none"
         id="path188" />
      <path
         d="M 15176.8,5221.4 H 11938 l 315.9,3164.5 c 564.7,-245 2068.3,-1538.9 2922.9,-3164.5"
         style="fill:#982c20;fill-opacity:1;fill-rule:nonzero;stroke:none"
         id="path190" />
      <path
         d="m 20719,5766.5 c -57.1,-177 -119.3,-358.7 -187.4,-545.1 h -3121.9 c 536.9,995.7 1838.7,2504 3102.9,3198.2 L 20719,5766.5"
         style="fill:#982c20;fill-opacity:1;fill-rule:nonzero;stroke:none"
         id="path192" />
      <path
         d="m 21796,8430.2 h -1191.7 c -200.3,0 -369.6,-148.4 -395.9,-347 l -380,-2873.8 h -6964.8 l -380,2873.8 c -26.3,198.6 -195.6,347 -395.9,347 H 10896 c -248.7,0 -436.8,-224.7 -393.2,-469.5 l 661.6,-4785.8 h 654.5 v 0 h 9687.6 v 0 h 21 l 661.7,4785.8 c 43.6,244.8 -144.5,469.5 -393.2,469.5"
         style="fill:#ea7b00;fill-opacity:1;fill-rule:nonzero;stroke:none"
         id="path194" />
      <path
         d="m 19758.9,6779.1 c 560.8,-187.7 451.5,-1375.1 0,-1557.6 h -6803.2 c -508.1,131.1 -551,1701.7 181.7,1583.6 4484.5,-843.2 4701.7,501.9 6621.5,-26"
         style="fill:#f2b066;fill-opacity:1;fill-rule:nonzero;stroke:none"
         id="path196" />
      <path
         d="m 14573.6,7982.7 c -2.1,-306.6 14.4,-595.2 47.4,-848 h 3190 l 188.9,3114.9 c -189.5,1137.7 -708.2,1413.4 -1529.3,1413.4 -734.8,0 -1224.2,-599.4 -1521.6,-1401.8 -257.1,-693.3 -370.8,-1537.9 -375.4,-2278.5"
         style="fill:#007880;fill-opacity:1;fill-rule:nonzero;stroke:none"
         id="path198" />
      <path
         d="M 14573.6,7922.5 15728,7992 c -640.9,209.8 -691.9,1193.5 -40.4,1805.5 l -738.6,463.7 c -257.1,-693.3 -370.8,-1598 -375.4,-2338.7"
         style="fill:#005459;fill-opacity:1;fill-rule:nonzero;stroke:none"
         id="path200" />
      <path
         d="m 14353.9,6491.1 h 4382.8 v 1491.5 h -3948 l -434.8,-1491.5"
         style="fill:#0e0e0e;fill-opacity:1;fill-rule:nonzero;stroke:none"
         id="path202" />
      <path
         d="M 19296.6,6964.4 18119.4,2686.8 h -918 c 290.6,1820.3 225.6,3003.6 498.9,4515.1 239.8,1240.7 1881.7,912.3 1596.3,-237.5"
         style="fill:#0e0e0e;fill-opacity:1;fill-rule:nonzero;stroke:none"
         id="path204" />
      <path
         d="m 17789.7,2686.8 c 0,2.8 -0.2,5.6 -0.2,8.5 0,317.1 257.1,574.1 574.2,574.1 317.1,0 574.1,-257 574.1,-574.1 0,-2.9 -0.1,-5.7 -0.2,-8.5 h -1147.9"
         style="fill:#b15626;fill-opacity:1;fill-rule:nonzero;stroke:none"
         id="path206" />
      <path
         d="m 18474.3,3258.7 -208.7,63.8 c -137.7,271 -725.3,237.5 -643.4,-92.4 -230.6,-34.3 -351.8,80.5 -351.8,80.5 l -69,-623.8 h 1244.8 l 28.1,571.9"
         style="fill:#b15626;fill-opacity:1;fill-rule:nonzero;stroke:none"
         id="path208" />
      <path
         d="m 14127.4,6964.4 1177.3,-4277.6 h 917.9 C 15932,4507.1 15997.1,5690.4 15723.8,7201.9 15484,8442.6 13842,8114.2 14127.4,6964.4"
         style="fill:#0e0e0e;fill-opacity:1;fill-rule:nonzero;stroke:none"
         id="path210" />
      <path
         d="m 15634.4,2686.8 c 0,2.8 0.2,5.6 0.2,8.5 0,317.1 -257.1,574.1 -574.2,574.1 -317.1,0 -574.2,-257 -574.2,-574.1 0,-2.9 0.2,-5.7 0.3,-8.5 h 1147.9"
         style="fill:#b15626;fill-opacity:1;fill-rule:nonzero;stroke:none"
         id="path212" />
      <path
         d="m 14949.7,3258.7 208.7,63.8 c 137.8,271 725.3,237.5 643.5,-92.4 230.5,-34.3 351.8,80.5 351.8,80.5 l 68.9,-623.8 h -1244.8 l -28.1,571.9"
         style="fill:#b15626;fill-opacity:1;fill-rule:nonzero;stroke:none"
         id="path214" />
      <path
         d="m 15979,11562.9 c 430.6,-261.3 491.9,-1037.2 271.2,-1346.3 l -1228.5,-915.2 1250.8,-644.1 -203.2,-665.3 c 0,0 -1305.6,106.3 -1944.6,761.8 -613.6,629.4 882.3,2478.2 1854.3,2809.1"
         style="fill:#007880;fill-opacity:1;fill-rule:nonzero;stroke:none"
         id="path216" />
      <path
         d="m 16852.4,10385.9 c -368.2,462.5 -113.9,1177 355.5,1156 1528.8,-538.2 2000.7,-2032.5 1516.4,-2703.3 -415,-574.7 -2240.1,-796 -2240.1,-796 v 629.2 l 1268.1,274 c 0,0 -653.9,1013.1 -899.9,1440.1"
         style="fill:#007880;fill-opacity:1;fill-rule:nonzero;stroke:none"
         id="path218" />
      <path
         d="m 15512.8,8202.2 c -23.7,210.7 99.6,474.2 416.7,531.7 553.9,100.6 754.4,-203.3 806.8,-420.5 13.6,-56.6 -37.9,-116.5 -85.4,-111.2 -47.6,5.2 -81,32.1 -89.2,75.2 -9.8,51.9 -37.3,116.1 -96.7,149.6 57.3,-112.2 33.4,-224.8 -122.6,-224.8 h -829.6"
         style="fill:#f7a594;fill-opacity:1;fill-rule:nonzero;stroke:none"
         id="path220" />
      <path
         d="m 16763.4,8202.7 435.9,2185.6 h 92.4 c -29.5,-150.5 -458.3,-2337.4 -471.7,-2405.7 -114.3,0 -1163.7,0 -1306.3,0 l -142.7,220.1 h 1392.4"
         style="fill:#99c1ff;fill-opacity:1;fill-rule:nonzero;stroke:none"
         id="path222" />
      <path
         d="m 17291.7,10388.3 h 3243.5 L 20055.4,7982.6 H 16820 l 471.7,2405.7"
         style="fill:#ffffff;fill-opacity:1;fill-rule:nonzero;stroke:none"
         id="path224" />
      <path
         d="m 16346,11406.3 c 0,-248.7 745.5,-413.7 989.2,-152.3 36.9,39.3 62.2,87.9 72,147.5 l 140.4,629.9 -890.4,335.7 -26.5,-82.3 -284.7,-878.5"
         style="fill:#f7a594;fill-opacity:1;fill-rule:nonzero;stroke:none"
         id="path226" />
      <path
         d="m 17407.2,11401.5 140.4,629.9 -842.4,226.8 c -218,-648.9 560.1,-1167.4 702,-856.7"
         style="fill:#f4856d;fill-opacity:1;fill-rule:nonzero;stroke:none"
         id="path228" />
      <path
         d="m 16591.4,12609.1 c -46.9,-619.1 442.4,-1164.3 852.9,-1192 410.5,-27.6 975.7,430.9 1022.6,1050 46.9,619.1 -335,1152.8 -852.9,1192 -517.9,39.2 -975.7,-430.9 -1022.6,-1050"
         style="fill:#f7a594;fill-opacity:1;fill-rule:nonzero;stroke:none"
         id="path230" />
      <path
         d="m 17277.8,13612.2 c 567.6,359.5 880.1,21.4 1162.8,-337.2 198.3,-251.6 338.8,-432.4 585.7,-470.2 -474.9,-599 -1424.6,-203.9 -1723.8,396.3 -29.5,-341.6 -432.2,-624.6 -711.1,-592 -90.3,380.2 173,1148.8 686.4,1003.1"
         style="fill:#0e0e0e;fill-opacity:1;fill-rule:nonzero;stroke:none"
         id="path232" />
      <path
         d="m 16452.6,12600.9 c 0,-136.5 110.7,-247.1 247.1,-247.1 136.5,0 247.1,110.6 247.1,247.1 0,136.5 -110.6,247.1 -247.1,247.1 -136.4,0 -247.1,-110.6 -247.1,-247.1"
         style="fill:#f7a594;fill-opacity:1;fill-rule:nonzero;stroke:none"
         id="path234" />
    </g>
  </g>
</svg>
