<?xml version="1.0" encoding="UTF-8"?>
<!DOCTYPE svg PUBLIC "-//W3C//DTD SVG 1.1//EN" "http://www.w3.org/Graphics/SVG/1.1/DTD/svg11.dtd">
<svg xmlns="http://www.w3.org/2000/svg" version="1.1" width="130px" height="57px" style="shape-rendering:geometricPrecision; text-rendering:geometricPrecision; image-rendering:optimizeQuality; fill-rule:evenodd; clip-rule:evenodd" xmlns:xlink="http://www.w3.org/1999/xlink">

<g><path style="opacity:0.897" fill="#952399" d="M 102.5,-0.5 C 103.833,-0.5 105.167,-0.5 106.5,-0.5C 113.881,2.60667 116.048,7.94 113,15.5C 107.333,20.8333 101.667,20.8333 96,15.5C 92.9523,7.94 95.119,2.60667 102.5,-0.5 Z"/></g>


<g><path style="opacity:0.868" fill="#952399" d="M 16.5,10.5 C 25.8975,11.7272 27.8975,16.2272 22.5,24C 14.225,26.0571 10.725,22.8905 12,14.5C 13.3968,12.9297 14.8968,11.5964 16.5,10.5 Z"/></g>
<g><path style="opacity:0.903" fill="#952399" d="M 70.5,56.5 C 66.8333,56.5 63.1667,56.5 59.5,56.5C 50.3725,50.431 40.7059,45.0976 30.5,40.5C 20.846,38.1624 12.846,40.8291 6.5,48.5C 3.93202,46.3271 1.59869,43.9938 -0.5,41.5C -0.5,40.5 -0.5,39.5 -0.5,38.5C 7.16417,30.5052 16.4975,27.3385 27.5,29C 37.0649,33.5642 46.3982,38.5642 55.5,44C 61.8249,46.3348 67.8249,45.6681 73.5,42C 78.4675,38.034 83.1342,33.7007 87.5,29C 102.252,21.0114 115.919,22.6781 128.5,34C 127.833,35 127.167,36 126.5,37C 120.252,35.7611 113.919,34.5945 107.5,33.5C 103.179,33.5513 99.1791,34.7179 95.5,37C 88.6751,45.6844 80.3417,52.1844 70.5,56.5 Z"/></g>
<g><path style="opacity:0.868" fill="#952399" d="M 61.5,27.5 C 70.8975,28.7272 72.8975,33.2272 67.5,41C 59.225,43.0571 55.725,39.8905 57,31.5C 58.3968,29.9297 59.8968,28.5964 61.5,27.5 Z"/></g>
</svg>
